<?xml version="1.0" encoding="UTF-8"?>
<svg id="Layer_1" data-name="Layer 1" xmlns="http://www.w3.org/2000/svg" viewBox="0 0 733.31 276.34">
  <defs>
    <style>
      .cls-1 {
        fill: #ba8437;
      }

      .cls-2 {
        fill: #004a80;
      }
    </style>
  </defs>
  <g>
    <path class="cls-2" d="M244.6,145.56c-.71,0-.84-.53-.41-1.59.43-1.06.84-2.02,1.24-2.88.71-1.41,1.06-3.61,1.06-6.59,0-2.59-.47-5.37-1.41-8.35-.94-2.98-2.79-5.69-5.53-8.12-3.77-3.45-8-6.2-12.71-8.24-4.71-2.04-9.63-3.69-14.77-4.94-5.14-1.25-10.22-2.35-15.24-3.3-3.06,4.24-6.34,8.04-9.83,11.42-3.49,3.37-7.2,5.96-11.12,7.77-2.2,1.02-4.32,1.78-6.35,2.29-2.04.51-3.96.76-5.77.76-4.39,0-7.98-1.16-10.77-3.47-2.79-2.32-4.18-5.04-4.18-8.18s1.35-5.9,4.06-8.77c2.71-2.86,7.2-5.24,13.47-7.12,2.51-.71,5.3-1.24,8.36-1.59,3.06-.35,6.24-.53,9.53-.53,2.04,0,4.06.06,6.06.18,2,.12,3.86.37,5.59.77,2.27-3.45,4.39-7.04,6.35-10.77,1.96-3.73,4-7.79,6.12-12.18-6.2.16-11.57-.76-16.12-2.77-4.55-2-8.06-4.69-10.53-8.06-2.47-3.37-3.71-6.98-3.71-10.83,0-3.14.9-6.22,2.71-9.24,1.8-3.02,4.65-5.77,8.53-8.24s8.84-4.41,14.89-5.83c.39-.16.76-.24,1.12-.24h1c1.18,0,1.77.24,1.77.71,0,.78-1.26,1.33-3.77,1.65-4.08.47-7.67,1.92-10.77,4.35-3.1,2.43-5.49,5.34-7.18,8.71-1.69,3.37-2.53,6.79-2.53,10.24,0,2.98.71,5.77,2.12,8.36,1.41,2.59,3.65,4.69,6.71,6.3,3.06,1.61,7.02,2.41,11.89,2.41,1.72,0,3.57-.12,5.53-.35.31-.63.84-1.9,1.59-3.82.74-1.92,1.59-4.1,2.53-6.53.94-2.43,1.86-4.78,2.77-7.06.9-2.28,1.94-4.94,3.12-8,3.61-9.02,7.31-16.1,11.12-21.24,3.8-5.14,7.49-8.77,11.06-10.89,3.57-2.12,6.77-3.18,9.59-3.18,3.06,0,5.59.9,7.59,2.71,2,1.81,3.08,3.84,3.24,6.12.08.71.12,1.22.12,1.53v1.18c0,4.63-.92,9.26-2.77,13.89-1.84,4.63-4.39,9.02-7.65,13.18-3.26,4.16-6.98,7.93-11.18,11.3-4.2,3.37-8.67,6.2-13.42,8.47-4.75,2.28-9.55,3.84-14.42,4.71-1.18,2.35-2.22,4.45-3.12,6.3-.9,1.84-1.9,3.82-3,5.94-1.1,2.12-2.55,4.83-4.35,8.12-.55,1.02-.96,1.75-1.24,2.18-.28.43-.69,1.08-1.24,1.94,3.92.94,8.2,2.26,12.83,3.94,4.63,1.69,9.2,3.69,13.71,6,4.51,2.32,8.53,4.84,12.06,7.59,4.39,3.37,7.51,7.18,9.36,11.42,1.84,4.24,2.77,7.96,2.77,11.18,0,2.27-.35,4-1.06,5.18-1.02,1.73-2.04,2.82-3.06,3.3-1.02.55-1.81.82-2.35.82ZM162.11,120.37c1.72,0,3.59-.24,5.59-.71,2-.47,4.1-1.22,6.3-2.24,6.59-3.22,12.67-8.79,18.24-16.71-1.81-.39-3.69-.69-5.65-.88-1.96-.2-3.96-.29-6-.29s-4.29.12-6.53.35c-2.24.24-4.41.67-6.53,1.29-5.26,1.41-9.28,3.22-12.06,5.41-2.79,2.2-4.18,4.43-4.18,6.71,0,1.96.98,3.63,2.94,5,1.96,1.37,4.59,2.06,7.88,2.06ZM214.94,68.48c5.33-1.18,10.55-3.31,15.65-6.41,5.1-3.1,9.69-6.86,13.77-11.3,4.08-4.43,7.33-9.26,9.77-14.47,2.43-5.22,3.65-10.53,3.65-15.95,0-1.33-.35-2.43-1.06-3.3-.71-.86-1.73-1.29-3.06-1.29-1.81,0-4.12,1-6.94,3s-6.04,5.34-9.65,10c-3.61,4.67-7.49,11.08-11.65,19.24-2.12,4.08-3.98,7.67-5.59,10.77-1.61,3.1-3.24,6.34-4.88,9.71Z"/>
    <path class="cls-2" d="M248.6,110.49c-2.9,0-5.51-.94-7.83-2.82-2.32-1.88-3.47-4.75-3.47-8.59,0-3.53.86-7.31,2.59-11.36,1.72-4.04,3.92-7.59,6.59-10.65,2.27-2.67,4.82-4.86,7.65-6.59,2.82-1.72,5.49-2.59,8-2.59,1.72,0,3.22.47,4.47,1.41,1.33,1.02,2,2.47,2,4.35s-.75,4.12-2.24,6.47c-1.49,2.35-3.61,4.55-6.35,6.59-1.18.86-2.67,1.69-4.47,2.47-1.81.79-3.61,1.43-5.41,1.94-1.81.51-3.3.77-4.47.77-.39.94-.77,2.2-1.12,3.77-.35,1.57-.53,3.18-.53,4.82,0,1.96.39,3.73,1.18,5.3.78,1.57,2.24,2.35,4.35,2.35,2.59,0,4.94-.74,7.06-2.24,2.12-1.49,4-3.35,5.65-5.59,1.65-2.24,3.04-4.49,4.18-6.77,1.14-2.27,2.06-4.2,2.77-5.77.47-1.1,1.1-1.65,1.88-1.65.39,0,.59.2.59.59,0,.31-.12.71-.35,1.18-1.1,2.35-2.28,4.85-3.53,7.47-1.26,2.63-2.75,5.1-4.47,7.41-1.73,2.32-3.79,4.18-6.18,5.59-2.39,1.41-5.24,2.12-8.53,2.12ZM246.48,89.78c1.1,0,2.94-.41,5.53-1.24s4.94-2.14,7.06-3.94c2.04-1.8,3.61-3.78,4.71-5.94,1.1-2.16,1.65-3.98,1.65-5.47,0-1.72-.63-2.59-1.88-2.59-.94,0-2.24.63-3.88,1.88-1.65,1.26-3.69,3.37-6.12,6.35-1.49,1.88-2.9,3.92-4.24,6.12-1.33,2.2-2.28,3.81-2.82,4.83Z"/>
    <path class="cls-2" d="M272.13,110.49c-3.85,0-6.57-1-8.18-3s-2.41-4.1-2.41-6.3c0-1.8.45-3.45,1.35-4.94.9-1.49,1.98-2.28,3.24-2.35,1.57-3.06,3.27-6.39,5.12-10,1.84-3.61,3.55-7.1,5.12-10.47,1.1-2.27,2.49-4.47,4.18-6.59,1.69-2.12,3.55-3.33,5.59-3.65h1.18c.63,0,1.2.04,1.71.12.51.08,1.04.24,1.59.47.86.39,1.29.98,1.29,1.77,0,.47-.28.71-.82.71-.24,0-.55-.12-.94-.35-.94-.39-1.77-.59-2.47-.59-.47,0-.9.12-1.29.35-1.49.78-2.53,1.88-3.12,3.3s-.88,2.9-.88,4.47c0,1.26.14,2.53.41,3.82.27,1.29.61,2.45,1,3.47.86,2.2,1.78,4.35,2.77,6.47.98,2.12,1.47,4.4,1.47,6.83s-.78,4.84-2.35,7.47c-1.57,2.63-3.57,4.73-6,6.3l.82.12c.39.08.67.12.82.12h.35c1.8,0,3.51-.53,5.12-1.59,1.61-1.06,3.04-2.37,4.3-3.94,1.25-1.57,2.69-3.77,4.3-6.59,1.61-2.82,3.16-5.8,4.65-8.94.24-.39.51-.59.82-.59.39,0,.69.14.88.41.2.28.22.61.06,1-1.02,2.2-2.18,4.57-3.47,7.12-1.29,2.55-2.77,4.98-4.41,7.3-1.65,2.32-3.55,4.2-5.71,5.65-2.16,1.45-4.57,2.18-7.24,2.18-.63,0-1.29-.04-2-.12-.71-.08-1.41-.24-2.12-.47-.78.31-1.59.57-2.41.77-.82.19-1.59.29-2.29.29ZM271.19,108.61c.47,0,.9-.06,1.29-.18.39-.12.74-.22,1.06-.29-1.18-.86-2.22-2.02-3.12-3.47-.9-1.45-1.43-3.31-1.59-5.59-1.41,1.49-2.12,3.1-2.12,4.82,0,1.26.39,2.35,1.18,3.3.78.94,1.88,1.41,3.3,1.41ZM275.66,106.96c1.33-1.1,2.53-2.71,3.59-4.82s1.59-4.9,1.59-8.36c0-3.06-.31-6.31-.94-9.77-.63-3.45-.94-6.51-.94-9.18,0-.55.02-1.04.06-1.47.04-.43.1-.84.18-1.24-1.02,2.12-2.2,4.57-3.53,7.35-1.33,2.79-2.67,5.47-4,8.06-1.33,2.59-2.47,4.79-3.41,6.59.86.08,1.49.37,1.88.88.39.51.55,1.51.47,3-.08,1.96.37,3.79,1.35,5.47.98,1.69,2.22,2.84,3.71,3.47Z"/>
    <path class="cls-2" d="M340.03,114.61c-1.73,0-3.41-.12-5.06-.35-4.94-.63-8.57-2.08-10.88-4.35-2.31-2.27-3.47-4.75-3.47-7.41,0-2.9,1.31-5.53,3.94-7.88,2.63-2.35,6.33-3.53,11.12-3.53,1.49,0,3.08.14,4.77.41,1.69.28,3.47.73,5.35,1.35.94.31,1.41.75,1.41,1.3,0,.31-.24.47-.71.47s-.86-.08-1.18-.24c-1.26-.47-2.45-.8-3.59-1-1.14-.19-2.22-.29-3.24-.29-3.37,0-5.94.96-7.71,2.88-1.77,1.92-2.65,4.02-2.65,6.3s.9,4.2,2.71,6c1.8,1.8,4.67,2.71,8.59,2.71,4.94,0,9.51-1.14,13.71-3.41,4.2-2.28,8.18-5.26,11.94-8.94,4-3.92,7.65-8.65,10.94-14.18,3.29-5.53,6.57-11.45,9.83-17.77,3.25-6.31,6.81-12.69,10.65-19.12,3.84-6.43,8.28-12.47,13.3-18.12,1.02-1.1,2.06-2.25,3.12-3.47,1.06-1.22,2.1-2.26,3.12-3.12-2.67-.39-5.41-.69-8.24-.88-2.82-.2-5.61-.29-8.35-.29-4.08,0-7.94.18-11.59.53-3.65.35-7.28.84-10.89,1.47-3.69.71-7.81,1.81-12.36,3.3-4.55,1.49-8.96,3.43-13.24,5.83-4.28,2.39-7.92,5.28-10.94,8.65-3.02,3.37-4.88,7.26-5.59,11.65-.08.39-.14.8-.18,1.24-.04.43-.06.84-.06,1.24,0,3.61,1.24,6.59,3.71,8.94,2.47,2.35,5.35,3.53,8.65,3.53,2.43,0,4.78-.65,7.06-1.94,2.27-1.29,4.31-3.02,6.12-5.18,1.8-2.16,3.14-4.53,4-7.12.08-.78.39-1.18.94-1.18.47,0,.71.43.71,1.29-.08,3.45-1.08,6.43-3,8.94-1.92,2.51-4.34,4.41-7.24,5.71-2.9,1.29-5.85,1.94-8.83,1.94s-5.96-.65-8.71-1.94c-2.75-1.29-4.98-3.22-6.71-5.77-1.73-2.55-2.59-5.71-2.59-9.47,0-4.39,1.08-8.28,3.24-11.65,2.16-3.37,5.04-6.33,8.65-8.88,3.61-2.55,7.53-4.71,11.77-6.47,4.24-1.77,8.47-3.18,12.71-4.24,4.24-1.06,8.08-1.86,11.53-2.41,3.53-.55,7.2-.98,11-1.29,3.8-.31,7.67-.47,11.59-.47,3.37,0,6.75.16,10.12.47,3.37.31,6.67.79,9.89,1.41,1.33-1.02,2.71-1.92,4.12-2.71,1.41-.78,2.98-1.49,4.71-2.12,1.1-.47,1.92-.71,2.47-.71.47,0,.71.16.71.47,0,.55-.63,1.22-1.88,2-.63.31-1.41.86-2.35,1.65-.94.79-1.96,1.69-3.06,2.71,5.1,1.26,9.69,3.14,13.77,5.65,4.47,2.67,7.67,5.49,9.59,8.47,1.92,2.98,2.88,6.04,2.88,9.18,0,3.61-1.1,7.2-3.3,10.77-2.2,3.57-5.06,6.88-8.59,9.94-3.53,3.06-7.41,5.71-11.65,7.94-4.24,2.24-8.43,3.86-12.59,4.88-4,1.02-8.04,1.77-12.12,2.24-4.08.47-7.73.71-10.94.71h-1.71c-.59,0-1.16-.04-1.71-.12-2.67,3.77-5.41,7.43-8.24,11-2.82,3.57-6,7.04-9.53,10.41-4.32,4.08-9.02,7.18-14.12,9.3-5.1,2.12-10.32,3.18-15.65,3.18ZM389.22,78.13c2.98.08,6.31-.16,10-.71,3.69-.55,7.37-1.37,11.06-2.47,6.12-1.88,11.63-4.59,16.53-8.12,4.9-3.53,8.78-7.45,11.65-11.77,2.86-4.31,4.3-8.55,4.3-12.71,0-2.51-.61-4.9-1.82-7.18-1.22-2.27-3.2-4.31-5.94-6.12-1.81-1.18-3.84-2.2-6.12-3.06-2.28-.86-4.67-1.57-7.18-2.12-4,5.65-7.75,11.53-11.24,17.65-3.49,6.12-6.94,12.28-10.36,18.48-3.41,6.2-7.04,12.24-10.89,18.12Z"/>
    <path class="cls-2" d="M452.53,110.37c-.86.08-1.84-.12-2.94-.59-1.1-.47-2.06-1.33-2.88-2.59-.82-1.25-1.24-3.02-1.24-5.29,0-1.88.35-4.16,1.06-6.83-.94,1.49-2.16,3.32-3.65,5.47-1.49,2.16-3.1,4.06-4.82,5.71-1.49,1.41-2.9,2.43-4.24,3.06-1.33.63-2.55.94-3.65.94-2.04,0-3.69-.92-4.94-2.77-1.26-1.84-1.88-4.25-1.88-7.24,0-3.14.78-6.71,2.35-10.71,1.57-4,4.12-8.16,7.65-12.47,2.27-2.75,5.04-4.96,8.3-6.65,3.25-1.69,6.45-2.53,9.59-2.53,1.8,0,3.53.29,5.18.88,1.65.59,3.1,1.55,4.35,2.88.55.55.82,1.18.82,1.88,0,.47-.2.86-.59,1.18-.39.31-.9.39-1.53.24-.86-2.74-2.71-4.12-5.53-4.12-1.33,0-2.86.43-4.59,1.29-2.67,1.41-5.43,3.73-8.3,6.94-2.86,3.22-5.35,6.55-7.47,10-.31.47-.81,1.37-1.47,2.71-.67,1.33-1.31,2.82-1.94,4.47-.63,1.65-1.06,3.26-1.29,4.82-.08.47-.12.8-.12,1v.88c0,2.59.98,3.88,2.94,3.88,2.35,0,5.02-1.72,8-5.18,2.04-2.51,3.88-5.14,5.53-7.88,1.65-2.74,3.33-5.69,5.06-8.83,1.18-2.12,2.28-3.88,3.3-5.29,1.02-1.41,2.47-2.12,4.35-2.12.86,0,1.72.12,2.59.35.86.24,1.77.28,2.71.12-.63.63-1.47,1.81-2.53,3.53-1.06,1.73-2.18,3.69-3.35,5.88-1.18,2.2-2.24,4.43-3.18,6.71-.94,2.28-1.61,4.24-2,5.88-.08.47-.18,1.14-.29,2-.12.86-.18,1.49-.18,1.88,0,2.2.63,3.3,1.88,3.3s2.61-.74,4.06-2.24c1.45-1.49,2.88-3.33,4.3-5.53,1.41-2.19,2.71-4.41,3.88-6.65s2.12-4.06,2.82-5.47c.31-.78.78-1.18,1.41-1.18.39,0,.59.28.59.82,0,.24-.12.67-.35,1.29-.94,1.96-2.08,4.18-3.41,6.65-1.33,2.47-2.79,4.87-4.35,7.18-1.57,2.32-3.2,4.24-4.88,5.77-1.69,1.53-3.39,2.37-5.12,2.53Z"/>
    <path class="cls-2" d="M482.54,110.13c-1.49,0-2.98-.61-4.47-1.82-1.49-1.22-2.24-3.2-2.24-5.94,0-2.12.51-4.55,1.53-7.3.94-2.67,2.22-5.26,3.82-7.77,1.61-2.51,2.77-4.55,3.47-6.12.24-.63.35-1.18.35-1.65,0-1.41-.88-2.43-2.65-3.06-1.76-.63-4.06-.98-6.88-1.06l-1.41,3.88c-.86,2.51-2.06,5.45-3.59,8.83-1.53,3.37-3.22,6.63-5.06,9.77-1.84,3.14-3.75,5.65-5.71,7.53-.16.16-.35.24-.59.24-.31,0-.53-.2-.65-.59-.12-.39.06-.86.53-1.41,3.06-4.08,5.8-8.61,8.24-13.59,2.43-4.98,4.49-10.06,6.18-15.24,1.69-5.18,2.92-9.96,3.71-14.36.24-1.25.67-2.18,1.29-2.77.63-.59,1.29-.88,2-.88,1.02,0,1.96.49,2.82,1.47.86.98,1.3,2.37,1.3,4.18,0,.31-.02.67-.06,1.06-.04.39-.1.78-.18,1.18-.31,1.65-1.24,3.2-2.77,4.65-1.53,1.45-2.77,2.53-3.71,3.24.78.08,1.61.14,2.47.18.86.04,1.8.06,2.82.06,3.69,0,7.33-.24,10.94-.71.16.47.24.82.24,1.06,0,1.02-.29,2.32-.88,3.88-.59,1.57-1.2,2.98-1.82,4.24-.31.71-.94,1.98-1.88,3.82-.94,1.84-1.96,3.92-3.06,6.24-1.1,2.31-2.02,4.59-2.77,6.83-.75,2.24-1.12,4.14-1.12,5.71,0,2.04.78,3.06,2.35,3.06,1.18,0,2.47-.76,3.88-2.29,1.41-1.53,2.8-3.41,4.18-5.65,1.37-2.24,2.63-4.43,3.77-6.59,1.14-2.16,2.02-3.86,2.65-5.12.31-.78.74-1.18,1.29-1.18.31,0,.47.28.47.82,0,.31-.12.79-.35,1.41-.87,1.81-1.88,3.85-3.06,6.12-1.18,2.28-2.49,4.51-3.94,6.71-1.45,2.2-3.02,4.1-4.71,5.71-1.69,1.61-3.51,2.65-5.47,3.12-.24.08-.67.12-1.29.12Z"/>
    <path class="cls-2" d="M502.9,110.02c-2.9,0-4.94-.84-6.12-2.53-1.18-1.69-1.77-3.63-1.77-5.83,0-1.18.14-2.37.41-3.59.27-1.22.61-2.33,1-3.35l7.88-20.12c.24-.63.35-1.18.35-1.65,0-.78-.2-1.47-.59-2.06-.39-.59-.67-1-.82-1.24l6.47-.24c1.18-.08,2.02.06,2.53.41.51.35.77.76.77,1.24s-.28,1.33-.82,2.59l-9.77,22.95c-.86,1.96-1.33,3.1-1.41,3.41-.24,1.18-.39,1.92-.47,2.24-.08.31-.12.51-.12.59v.94c0,1.02.25,1.88.76,2.59.51.71,1.39,1.06,2.65,1.06.78,0,1.69-.24,2.71-.71,1.02-.47,1.76-.94,2.24-1.41,1.96-2.04,3.9-4.73,5.83-8.06,1.92-3.33,3.71-6.65,5.35-9.94.31-.78.71-1.18,1.18-1.18.39,0,.59.28.59.82,0,.31-.12.79-.35,1.41-.78,1.65-1.76,3.69-2.94,6.12-1.18,2.43-2.57,4.85-4.18,7.24-1.61,2.39-3.35,4.37-5.24,5.94-1.88,1.57-3.92,2.35-6.12,2.35ZM512.43,62.24c-1.18,0-2.14-.41-2.88-1.24-.75-.82-1.12-1.82-1.12-3,0-1.49.59-2.78,1.77-3.88,1.18-1.1,2.47-1.65,3.88-1.65,1.25,0,2.27.39,3.06,1.18.78.78,1.18,1.73,1.18,2.82,0,1.49-.59,2.82-1.76,4s-2.55,1.77-4.12,1.77Z"/>
    <path class="cls-2" d="M522.67,110.49c-3.85,0-6.57-1-8.18-3s-2.41-4.1-2.41-6.3c0-1.8.45-3.45,1.35-4.94.9-1.49,1.98-2.28,3.24-2.35,1.57-3.06,3.27-6.39,5.12-10,1.84-3.61,3.55-7.1,5.12-10.47,1.1-2.27,2.49-4.47,4.18-6.59,1.69-2.12,3.55-3.33,5.59-3.65h1.18c.63,0,1.2.04,1.71.12.51.08,1.04.24,1.59.47.86.39,1.29.98,1.29,1.77,0,.47-.28.71-.82.71-.24,0-.55-.12-.94-.35-.94-.39-1.77-.59-2.47-.59-.47,0-.9.12-1.3.35-1.49.78-2.53,1.88-3.12,3.3-.59,1.41-.88,2.9-.88,4.47,0,1.26.14,2.53.41,3.82.27,1.29.61,2.45,1,3.47.86,2.2,1.78,4.35,2.77,6.47.98,2.12,1.47,4.4,1.47,6.83s-.78,4.84-2.35,7.47c-1.57,2.63-3.57,4.73-6,6.3l.82.12c.39.08.67.12.82.12h.35c1.8,0,3.51-.53,5.12-1.59,1.61-1.06,3.04-2.37,4.3-3.94,1.25-1.57,2.69-3.77,4.29-6.59,1.61-2.82,3.16-5.8,4.65-8.94.24-.39.51-.59.82-.59.39,0,.69.14.88.41.2.28.22.61.06,1-1.02,2.2-2.18,4.57-3.47,7.12-1.29,2.55-2.77,4.98-4.41,7.3-1.65,2.32-3.55,4.2-5.71,5.65-2.16,1.45-4.57,2.18-7.24,2.18-.63,0-1.3-.04-2-.12-.71-.08-1.41-.24-2.12-.47-.78.31-1.59.57-2.41.77-.82.19-1.59.29-2.29.29ZM521.72,108.61c.47,0,.9-.06,1.29-.18.39-.12.74-.22,1.06-.29-1.18-.86-2.22-2.02-3.12-3.47-.9-1.45-1.43-3.31-1.59-5.59-1.41,1.49-2.12,3.1-2.12,4.82,0,1.26.39,2.35,1.18,3.3.78.94,1.88,1.41,3.3,1.41ZM526.2,106.96c1.33-1.1,2.53-2.71,3.59-4.82s1.59-4.9,1.59-8.36c0-3.06-.31-6.31-.94-9.77-.63-3.45-.94-6.51-.94-9.18,0-.55.02-1.04.06-1.47.04-.43.1-.84.18-1.24-1.02,2.12-2.2,4.57-3.53,7.35-1.34,2.79-2.67,5.47-4,8.06-1.33,2.59-2.47,4.79-3.41,6.59.86.08,1.49.37,1.88.88.39.51.55,1.51.47,3-.08,1.96.37,3.79,1.35,5.47.98,1.69,2.22,2.84,3.71,3.47Z"/>
    <path class="cls-2" d="M553.85,110.02c-2.9,0-4.94-.84-6.12-2.53-1.18-1.69-1.77-3.63-1.77-5.83,0-1.18.14-2.37.41-3.59.27-1.22.61-2.33,1-3.35l7.88-20.12c.24-.63.35-1.18.35-1.65,0-.78-.2-1.47-.59-2.06-.39-.59-.67-1-.82-1.24l6.47-.24c1.18-.08,2.02.06,2.53.41.51.35.76.76.76,1.24s-.28,1.33-.82,2.59l-9.77,22.95c-.86,1.96-1.33,3.1-1.41,3.41-.24,1.18-.39,1.92-.47,2.24-.08.31-.12.51-.12.59v.94c0,1.02.25,1.88.76,2.59.51.71,1.39,1.06,2.65,1.06.78,0,1.69-.24,2.71-.71,1.02-.47,1.76-.94,2.24-1.41,1.96-2.04,3.9-4.73,5.82-8.06,1.92-3.33,3.71-6.65,5.35-9.94.31-.78.71-1.18,1.18-1.18.39,0,.59.28.59.82,0,.31-.12.79-.35,1.41-.78,1.65-1.77,3.69-2.94,6.12-1.18,2.43-2.57,4.85-4.18,7.24-1.61,2.39-3.35,4.37-5.24,5.94-1.88,1.57-3.92,2.35-6.12,2.35ZM563.38,62.24c-1.18,0-2.14-.41-2.88-1.24-.75-.82-1.12-1.82-1.12-3,0-1.49.59-2.78,1.77-3.88,1.18-1.1,2.47-1.65,3.88-1.65,1.25,0,2.28.39,3.06,1.18.78.78,1.18,1.73,1.18,2.82,0,1.49-.59,2.82-1.76,4s-2.55,1.77-4.12,1.77Z"/>
    <path class="cls-2" d="M579.27,110.49c-2.9,0-5.51-.94-7.83-2.82-2.32-1.88-3.47-4.75-3.47-8.59,0-3.53.86-7.31,2.59-11.36,1.72-4.04,3.92-7.59,6.59-10.65,2.27-2.67,4.82-4.86,7.65-6.59,2.82-1.72,5.49-2.59,8-2.59,1.72,0,3.22.47,4.47,1.41,1.33,1.02,2,2.47,2,4.35s-.75,4.12-2.24,6.47c-1.49,2.35-3.61,4.55-6.35,6.59-1.18.86-2.67,1.69-4.47,2.47-1.81.79-3.61,1.43-5.41,1.94-1.81.51-3.3.77-4.47.77-.39.94-.76,2.2-1.12,3.77-.35,1.57-.53,3.18-.53,4.82,0,1.96.39,3.73,1.18,5.3.78,1.57,2.24,2.35,4.35,2.35,2.59,0,4.94-.74,7.06-2.24,2.12-1.49,4-3.35,5.65-5.59,1.65-2.24,3.04-4.49,4.18-6.77,1.14-2.27,2.06-4.2,2.77-5.77.47-1.1,1.1-1.65,1.88-1.65.39,0,.59.2.59.59,0,.31-.12.71-.35,1.18-1.1,2.35-2.28,4.85-3.53,7.47-1.26,2.63-2.75,5.1-4.47,7.41-1.73,2.32-3.79,4.18-6.18,5.59-2.39,1.41-5.24,2.12-8.53,2.12ZM577.15,89.78c1.1,0,2.94-.41,5.53-1.24,2.59-.82,4.94-2.14,7.06-3.94,2.04-1.8,3.61-3.78,4.71-5.94,1.1-2.16,1.65-3.98,1.65-5.47,0-1.72-.63-2.59-1.88-2.59-.94,0-2.24.63-3.88,1.88-1.65,1.26-3.69,3.37-6.12,6.35-1.49,1.88-2.9,3.92-4.24,6.12-1.33,2.2-2.28,3.81-2.82,4.83Z"/>
    <path class="cls-2" d="M588.92,110.96c2.82-5.73,5.55-11.39,8.18-17,2.63-5.61,5.31-10.96,8.06-16.06,1.57-2.82,2.88-4.8,3.94-5.94,1.06-1.14,2.49-1.71,4.29-1.71.63,0,1.29.1,2,.29.71.2,1.41.29,2.12.29.47,0,.82-.04,1.06-.12-1.1.63-2.51,2.18-4.24,4.65-1.73,2.47-3.49,5.32-5.3,8.53-1.81,3.22-3.41,6.24-4.82,9.06,1.49-1.8,3.04-3.61,4.65-5.41,1.61-1.8,3.39-3.53,5.35-5.18,1.88-1.65,4.14-3.35,6.77-5.12,2.63-1.77,5.2-3.24,7.71-4.41,2.51-1.18,4.51-1.76,6-1.76.55,0,.94.04,1.18.12-1.73,3.06-3.24,5.83-4.53,8.3-1.3,2.47-2.61,5.1-3.94,7.88-1.34,2.79-2.53,5.45-3.59,8-1.06,2.55-1.75,4.69-2.06,6.41-.24,1.02-.35,1.96-.35,2.82,0,1.26.24,2.08.71,2.47.47.39.98.59,1.53.59,1.49,0,3.06-.8,4.71-2.41,1.65-1.61,3.24-3.59,4.77-5.94,1.53-2.35,2.9-4.65,4.12-6.88,1.22-2.24,2.1-3.94,2.65-5.12.31-.63.55-1,.71-1.12.16-.12.39-.18.71-.18.47,0,.71.31.71.94,0,.39-.12.82-.35,1.29-.94,1.81-2.06,3.96-3.35,6.47-1.29,2.51-2.77,4.96-4.41,7.35-1.65,2.39-3.45,4.4-5.41,6-1.96,1.61-4.08,2.41-6.35,2.41-1.57,0-3.2-.55-4.88-1.65-1.69-1.1-2.53-3.14-2.53-6.12,0-.86.08-1.78.24-2.77.16-.98.43-2.06.82-3.24.63-1.57,1.37-3.25,2.24-5.06.86-1.8,2.27-4.27,4.24-7.41.55-.86.88-1.53,1-2s.18-.86.18-1.18c0-.94-.43-1.41-1.29-1.41-.71,0-1.75.39-3.12,1.18-1.37.78-3.08,2.16-5.12,4.12-1.96,1.88-4.29,4.55-7,8-2.71,3.45-5.83,8.55-9.36,15.3-.55,1.02-1.16,1.57-1.82,1.65-.67.08-1.59.16-2.77.24-.78.08-1.53.14-2.24.18-.71.04-1.29.25-1.76.65Z"/>
    <path class="cls-2" d="M642.34,110.49c-3.84,0-6.57-1-8.18-3-1.61-2-2.41-4.1-2.41-6.3,0-1.8.45-3.45,1.35-4.94.9-1.49,1.98-2.28,3.24-2.35,1.57-3.06,3.27-6.39,5.12-10,1.84-3.61,3.55-7.1,5.12-10.47,1.1-2.27,2.49-4.47,4.18-6.59,1.69-2.12,3.55-3.33,5.59-3.65h1.18c.63,0,1.19.04,1.71.12.51.08,1.04.24,1.59.47.86.39,1.29.98,1.29,1.77,0,.47-.28.71-.82.71-.24,0-.55-.12-.94-.35-.94-.39-1.77-.59-2.47-.59-.47,0-.9.12-1.29.35-1.49.78-2.53,1.88-3.12,3.3-.59,1.41-.88,2.9-.88,4.47,0,1.26.14,2.53.41,3.82.27,1.29.61,2.45,1,3.47.86,2.2,1.78,4.35,2.77,6.47.98,2.12,1.47,4.4,1.47,6.83s-.79,4.84-2.35,7.47c-1.57,2.63-3.57,4.73-6,6.3l.82.12c.39.08.67.12.82.12h.35c1.8,0,3.51-.53,5.12-1.59,1.61-1.06,3.04-2.37,4.29-3.94,1.25-1.57,2.69-3.77,4.3-6.59,1.61-2.82,3.16-5.8,4.65-8.94.24-.39.51-.59.82-.59.39,0,.69.14.88.41.19.28.22.61.06,1-1.02,2.2-2.18,4.57-3.47,7.12-1.3,2.55-2.77,4.98-4.41,7.3-1.65,2.32-3.55,4.2-5.71,5.65-2.16,1.45-4.57,2.18-7.24,2.18-.63,0-1.29-.04-2-.12-.71-.08-1.41-.24-2.12-.47-.79.31-1.59.57-2.41.77-.82.19-1.59.29-2.3.29ZM641.4,108.61c.47,0,.9-.06,1.29-.18.39-.12.74-.22,1.06-.29-1.18-.86-2.22-2.02-3.12-3.47-.9-1.45-1.43-3.31-1.59-5.59-1.41,1.49-2.12,3.1-2.12,4.82,0,1.26.39,2.35,1.18,3.3.78.94,1.88,1.41,3.3,1.41ZM645.87,106.96c1.33-1.1,2.53-2.71,3.59-4.82s1.59-4.9,1.59-8.36c0-3.06-.31-6.31-.94-9.77-.63-3.45-.94-6.51-.94-9.18,0-.55.02-1.04.06-1.47.04-.43.1-.84.18-1.24-1.02,2.12-2.2,4.57-3.53,7.35-1.34,2.79-2.67,5.47-4,8.06-1.34,2.59-2.47,4.79-3.41,6.59.86.08,1.49.37,1.88.88.39.51.55,1.51.47,3-.08,1.96.37,3.79,1.35,5.47.98,1.69,2.22,2.84,3.71,3.47Z"/>
    <path class="cls-2" d="M273.78,225.75c-2.12,0-3.88-1.06-5.3-3.18-.39-.63-.75-1.45-1.06-2.47-.31-1.02-.47-2.16-.47-3.41,0-.71.04-1.43.12-2.18.08-.74.24-1.51.47-2.29-1.1,1.73-2.37,3.63-3.82,5.71-1.45,2.08-3.1,3.88-4.94,5.41-1.84,1.53-3.9,2.3-6.18,2.3-.79,0-1.61-.12-2.47-.35-2.12-.63-3.63-1.73-4.53-3.3-.9-1.57-1.35-3.45-1.35-5.65,0-2.43.49-5.1,1.47-8,.98-2.9,2.24-5.73,3.77-8.47,1.53-2.75,3.12-5.1,4.77-7.06,2.35-2.75,5.06-4.94,8.12-6.59,3.06-1.65,6.16-2.47,9.3-2.47,2.82,0,5.49.75,8,2.24,1.18-2.2,2.43-4.65,3.77-7.35,1.33-2.71,2.67-5.39,4-8.06,1.33-2.67,2.51-5.12,3.53-7.35,1.02-2.24,1.8-3.94,2.35-5.12,1.18-2.75,2.29-4.49,3.35-5.24,1.06-.74,2.33-1.12,3.82-1.12.86,0,1.82.1,2.88.29,1.06.2,2.1.26,3.12.18-.47.47-1.43,1.82-2.88,4.06-1.45,2.24-3.16,5.08-5.12,8.53-1.96,3.45-4.06,7.24-6.3,11.36-2.24,4.12-4.43,8.28-6.59,12.47-2.16,4.2-4.16,8.16-6,11.89-1.84,3.73-3.32,6.92-4.41,9.59-.31.63-.76,1.9-1.35,3.82-.59,1.92-.88,3.59-.88,5,0,1.02.24,1.9.71,2.65.47.75,1.25,1.12,2.35,1.12,1.49,0,3-.76,4.53-2.29,1.53-1.53,3-3.41,4.41-5.65s2.67-4.43,3.77-6.59c1.1-2.16,1.92-3.86,2.47-5.12.39-.86.86-1.29,1.41-1.29.47,0,.71.35.71,1.06v.41c0,.2-.08.41-.24.65-.71,1.65-1.67,3.69-2.88,6.12-1.22,2.43-2.65,4.87-4.29,7.3-1.65,2.43-3.49,4.45-5.53,6.06-2.04,1.61-4.24,2.41-6.59,2.41ZM253.42,222.22c1.1,0,2.47-.61,4.12-1.82,1.65-1.22,3.41-3.16,5.3-5.83,2.2-3.14,4.71-7.06,7.53-11.77,2.82-4.71,5.61-9.69,8.36-14.94-1.02-.94-2.2-1.41-3.53-1.41-2.2,0-4.65,1.02-7.35,3.06-2.71,2.04-5.34,4.63-7.88,7.77-2.55,3.14-4.69,6.32-6.41,9.53-1.18,2.2-2.02,4.2-2.53,6-.51,1.81-.77,3.37-.77,4.71,0,3.14,1.06,4.71,3.18,4.71Z"/>
    <path class="cls-2" d="M294.96,225.75c-.86,0-1.9-.2-3.12-.59-1.22-.39-2.28-1.12-3.18-2.18-.9-1.06-1.35-2.65-1.35-4.77s.49-4.02,1.47-5.94c.98-1.92,1.9-3.78,2.77-5.59-.24,0-.49-.08-.77-.24-.28-.16-.41-.39-.41-.71s.08-.63.24-.94c.31-.63.67-1.29,1.06-2,.39-.71.74-1.45,1.06-2.24,1.18-2.43,2.35-4.77,3.53-7s2.2-4.22,3.06-5.94c.86-1.73,2.35-2.59,4.47-2.59h7.3c-1.33,1.02-2.53,2.14-3.59,3.35-1.06,1.22-2.37,3.43-3.94,6.65-1.1,2.2-2.06,4.14-2.88,5.83-.82,1.69-1.65,3.39-2.47,5.12-.82,1.73-1.51,3.18-2.06,4.35-1.02,2.2-1.69,3.94-2,5.24-.31,1.29-.47,2.49-.47,3.59,0,2.59.86,3.88,2.59,3.88,1.88,0,4.16-1.53,6.83-4.59,2.2-2.59,4.35-5.69,6.47-9.3,2.12-3.61,4.14-7.33,6.06-11.18,1.92-3.84,3.63-7.3,5.12-10.36.86-1.73,2.39-2.59,4.59-2.59h6.47c-1.18.94-2.16,1.82-2.94,2.65-.79.82-1.55,1.92-2.29,3.3-.75,1.37-1.75,3.32-3,5.83-1.02,2.12-2.1,4.37-3.24,6.77-1.14,2.39-2.14,4.65-3,6.77-.86,2.12-1.41,3.84-1.65,5.18-.08.78-.16,1.37-.24,1.76-.08.39-.12.82-.12,1.3,0,1.49.25,2.55.77,3.18.51.63,1.12.94,1.82.94,1.88,0,3.78-1.06,5.71-3.18,1.92-2.12,3.77-4.71,5.53-7.77,1.77-3.06,3.27-5.96,4.53-8.71.47-.86.9-1.29,1.29-1.29.47,0,.71.28.71.82,0,.39-.16.86-.47,1.41-.86,1.88-1.92,4.04-3.18,6.47-1.26,2.43-2.67,4.83-4.24,7.18-1.57,2.35-3.3,4.29-5.18,5.82-1.88,1.53-3.92,2.3-6.12,2.3-1.96,0-3.57-.72-4.82-2.18-1.26-1.45-1.88-3.51-1.88-6.18,0-2.12.39-4.39,1.18-6.83-1.34,2.35-2.86,4.71-4.59,7.06-1.73,2.35-3.57,4.29-5.53,5.82-1.96,1.53-3.92,2.3-5.88,2.3Z"/>
    <path class="cls-2" d="M378.4,230.34c-1.73,0-3.49-.12-5.3-.35-4.94-.63-8.57-2.08-10.88-4.35-2.32-2.27-3.47-4.75-3.47-7.41,0-2.9,1.29-5.55,3.88-7.94,2.59-2.39,6.24-3.59,10.94-3.59,3.14,0,6.55.63,10.24,1.88,2.04.71,4.47,1.88,7.3,3.53,2.82,1.65,6.08,3.37,9.77,5.18,3.92-3.77,7.51-8.43,10.77-14,3.25-5.57,6.51-11.55,9.77-17.95,3.25-6.39,6.79-12.81,10.59-19.24,3.8-6.43,8.22-12.47,13.24-18.12l6.83-7.65c-2.9-.47-5.92-.84-9.06-1.12-3.14-.27-6.4-.41-9.77-.41-4.24,0-8.59.22-13.06.65-4.47.43-8.94,1.12-13.42,2.06-7.38,1.57-13.61,4.08-18.71,7.53-5.1,3.45-8.96,7.2-11.59,11.24-2.63,4.04-3.94,7.83-3.94,11.36,0,2.43.69,4.61,2.06,6.53,1.37,1.92,3.43,3.32,6.18,4.18,1.72.55,3.49.82,5.3.82,2.67,0,5.02-.55,7.06-1.65,2.04-1.1,3.77-2.45,5.18-4.06,1.41-1.61,2.45-3.16,3.12-4.65.67-1.49.96-2.59.88-3.3,0-.55.39-.82,1.18-.82s1.18.59,1.18,1.77v.12c0,3.22-.98,6-2.94,8.36-1.96,2.35-4.41,4.16-7.35,5.41-2.94,1.26-5.9,1.88-8.88,1.88-1.88,0-3.85-.31-5.88-.94-4.24-1.49-7.37-3.67-9.41-6.53-2.04-2.86-3.06-6.02-3.06-9.47,0-3.22.88-6.53,2.65-9.94,1.76-3.41,4.37-6.67,7.83-9.77,3.45-3.1,7.75-5.79,12.89-8.06,5.14-2.27,11.08-3.88,17.83-4.82,3.61-.55,7.18-.94,10.71-1.18,3.53-.24,6.94-.35,10.24-.35,4.55,0,9,.22,13.36.65,4.35.43,8.45,1.08,12.3,1.94,1.1-.94,2.22-1.77,3.35-2.47,1.14-.71,2.18-1.25,3.12-1.65.55-.24,1.02-.39,1.41-.47.39-.08.71-.12.94-.12.47,0,.71.16.71.47,0,.39-.59,1.02-1.77,1.88-.78.55-1.53,1.16-2.24,1.82-.71.67-1.14,1.16-1.29,1.47,8,2.04,14.49,4.85,19.48,8.41,4.98,3.57,7.47,7.79,7.47,12.65,0,2.51-.82,5.26-2.47,8.24-1.73,2.9-4.12,5.24-7.18,7-3.06,1.76-6.32,3.06-9.77,3.88-3.45.82-6.67,1.32-9.65,1.47,2.59.78,5.43,1.94,8.53,3.47,3.1,1.53,5.96,3.39,8.59,5.59,2.63,2.2,4.37,4.79,5.24,7.77.55,1.88.82,3.81.82,5.77,0,4.16-1.2,7.93-3.59,11.3-2.39,3.37-5.57,6.26-9.53,8.65-3.96,2.39-8.3,4.24-13,5.53-4.71,1.29-9.38,1.94-14,1.94-1.73,0-3.49-.12-5.3-.35-7.53-.94-13.75-2.12-18.65-3.53-4.9-1.41-9.2-2.98-12.89-4.71-7.61,5.73-15.89,8.59-24.83,8.59ZM376.04,226.7c4.39.24,8.41-.29,12.06-1.59,3.65-1.29,7.04-3.12,10.18-5.47-2.75-1.33-5.55-2.72-8.41-4.18-2.86-1.45-5.9-2.77-9.12-3.94-2.28-.78-4.35-1.18-6.24-1.18-2.9,0-5.1.76-6.59,2.3-1.49,1.53-2.24,3.28-2.24,5.24s.86,3.98,2.59,5.83c1.72,1.84,4.31,2.84,7.77,3ZM438.41,226.93c4.86,0,9.3-.75,13.3-2.24,4-1.49,7.47-3.45,10.41-5.88,2.94-2.43,5.22-5.14,6.83-8.12,1.61-2.98,2.41-5.92,2.41-8.83,0-2.74-.82-5.41-2.47-8-1.65-2.59-4.24-4.75-7.77-6.47-3.06-1.49-6.22-2.72-9.47-3.71-3.26-.98-6.06-1.84-8.41-2.59-2.35-.74-3.73-1.51-4.12-2.29,0-.94.41-1.59,1.24-1.94.82-.35,1.9-.53,3.24-.53,1.57,0,3.45.12,5.65.35,2.2.24,4.51.35,6.94.35s5.08-.57,7.71-1.71c2.63-1.14,5.04-2.67,7.24-4.59,2.2-1.92,3.98-4.04,5.35-6.35,1.37-2.31,2.06-4.69,2.06-7.12,0-2.19-.75-4.35-2.24-6.47-1.49-2.12-3.96-3.96-7.41-5.53-3.45-1.57-7.18-2.82-11.18-3.77-3.92,5.41-7.85,11.47-11.77,18.18-3.92,6.71-7.85,13.49-11.77,20.36-3.92,6.87-7.89,13.36-11.89,19.48-4,6.12-8,11.38-12,15.77-.94,1.02-1.69,1.78-2.24,2.29-.55.51-1.29,1.2-2.24,2.06,3.69,1.49,7.88,2.9,12.59,4.24,4.71,1.34,10.08,2.28,16.12,2.82.63.08,1.27.14,1.94.18.67.04,1.31.06,1.94.06Z"/>
    <path class="cls-2" d="M512.67,226.11c-.86.08-1.84-.12-2.94-.59-1.1-.47-2.06-1.33-2.88-2.59-.82-1.25-1.24-3.02-1.24-5.29,0-1.88.35-4.16,1.06-6.83-.94,1.49-2.16,3.32-3.65,5.47-1.49,2.16-3.1,4.06-4.82,5.71-1.49,1.41-2.9,2.43-4.24,3.06-1.33.63-2.55.94-3.65.94-2.04,0-3.69-.92-4.94-2.77-1.26-1.84-1.88-4.25-1.88-7.24,0-3.14.78-6.71,2.35-10.71,1.57-4,4.12-8.16,7.65-12.47,2.27-2.75,5.04-4.96,8.3-6.65,3.25-1.69,6.45-2.53,9.59-2.53,1.8,0,3.53.29,5.18.88,1.65.59,3.1,1.55,4.35,2.88.55.55.82,1.18.82,1.88,0,.47-.2.86-.59,1.18-.39.31-.9.39-1.53.24-.86-2.74-2.71-4.12-5.53-4.12-1.33,0-2.86.43-4.59,1.29-2.67,1.41-5.43,3.73-8.3,6.94-2.86,3.22-5.35,6.55-7.47,10-.31.47-.81,1.37-1.47,2.71-.67,1.33-1.31,2.82-1.94,4.47-.63,1.65-1.06,3.26-1.29,4.82-.08.47-.12.8-.12,1v.88c0,2.59.98,3.88,2.94,3.88,2.35,0,5.02-1.72,8-5.18,2.04-2.51,3.88-5.14,5.53-7.88,1.65-2.74,3.33-5.69,5.06-8.83,1.18-2.12,2.28-3.88,3.3-5.29,1.02-1.41,2.47-2.12,4.35-2.12.86,0,1.72.12,2.59.35.86.24,1.77.28,2.71.12-.63.63-1.47,1.81-2.53,3.53-1.06,1.73-2.18,3.69-3.35,5.88-1.18,2.2-2.24,4.43-3.18,6.71-.94,2.28-1.61,4.24-2,5.88-.08.47-.18,1.14-.29,2-.12.86-.18,1.49-.18,1.88,0,2.2.63,3.3,1.88,3.3s2.61-.74,4.06-2.24c1.45-1.49,2.88-3.33,4.3-5.53,1.41-2.19,2.71-4.41,3.88-6.65s2.12-4.06,2.82-5.47c.31-.78.78-1.18,1.41-1.18.39,0,.59.28.59.82,0,.24-.12.67-.35,1.29-.94,1.96-2.08,4.18-3.41,6.65-1.33,2.47-2.79,4.87-4.35,7.18-1.57,2.32-3.2,4.24-4.88,5.77-1.69,1.53-3.39,2.37-5.12,2.53ZM502.08,175.86l17.65-12.59c1.49-.16,2.59-.24,3.29-.24.78,0,1.18.08,1.18.24l4.24,12.59c0,.08.02.12.06.12s.06.04.06.12c0,.31-.28.47-.82.47-.79,0-1.34-.24-1.65-.71l-5.53-6.94c-.86.47-2.06,1.06-3.59,1.76-1.53.71-3.14,1.41-4.83,2.12-1.69.71-3.18,1.34-4.47,1.88-1.29.55-2.14.94-2.53,1.18-.31.24-.67.39-1.06.47-.39.08-.78.12-1.18.12s-.69-.06-.88-.18c-.2-.12-.18-.25.06-.41Z"/>
    <path class="cls-2" d="M534.44,225.75c-2.2,0-4.16-.76-5.88-2.3-1.73-1.53-2.59-3.94-2.59-7.24,0-2.59.49-5.78,1.47-9.59.98-3.8,2.19-7.77,3.65-11.88,1.45-4.12,2.88-7.86,4.29-11.24h-6.24c-.55,0-.82-.39-.82-1.18,0-.39.1-.74.29-1.06.19-.31.49-.47.88-.47h7.06c1.33-2.98,2.75-5.88,4.24-8.71,1.49-2.82,2.94-5.49,4.35-8,1.8-3.14,3.73-5.49,5.77-7.06,2.04-1.57,3.8-2.35,5.3-2.35,1.18,0,2.16.45,2.94,1.35.78.9,1.18,2.26,1.18,4.06,0,1.1-.24,2.61-.71,4.53-.47,1.92-1.22,3.94-2.24,6.06-.55,1.1-1.31,2.67-2.3,4.71-.98,2.04-1.94,3.84-2.88,5.41h5.65c.55,0,.82.39.82,1.18,0,.31-.08.65-.24,1-.16.35-.39.53-.71.53h-6.94c-1.96,3.37-4.2,6.67-6.71,9.89-2.51,3.22-5.49,6.43-8.94,9.65-.24.71-.53,1.73-.88,3.06-.35,1.34-.67,2.69-.94,4.06-.28,1.37-.61,3-1,4.88-.24,1.02-.35,1.96-.35,2.82,0,1.65.39,2.84,1.18,3.59.78.75,1.69,1.12,2.71,1.12.63,0,1.25-.1,1.88-.29.63-.19,1.33-.57,2.12-1.12,2.75-1.96,5.16-4.63,7.24-8,2.08-3.37,3.9-6.63,5.47-9.77.47-.94.94-1.41,1.41-1.41.31,0,.47.24.47.71,0,.24-.12.67-.35,1.29-1.73,3.61-3.18,6.51-4.35,8.71-1.18,2.2-2.32,4.02-3.41,5.47-1.1,1.45-2.39,2.88-3.88,4.29-1.1,1.1-2.35,1.92-3.77,2.47-1.41.55-2.82.82-4.24.82ZM536.08,199.28c2.27-2.35,4.41-4.86,6.41-7.53,2-2.67,3.86-5.41,5.59-8.24h-5.53c-1.26,2.9-2.43,5.73-3.53,8.47-1.1,2.75-2.08,5.18-2.94,7.3ZM543.73,180.8h6c1.1-2.04,2.14-4.04,3.12-6,.98-1.96,1.86-3.92,2.65-5.88.55-1.25,1.02-2.67,1.41-4.24.39-1.57.59-2.78.59-3.65,0-1.18-.28-1.77-.82-1.77-.39,0-.96.33-1.71,1-.75.67-1.67,1.79-2.77,3.35-1.41,1.96-2.81,4.49-4.18,7.59-1.37,3.1-2.81,6.3-4.29,9.59Z"/>
    <path class="cls-2" d="M555.97,225.75c-2.9,0-4.94-.84-6.12-2.53-1.18-1.69-1.77-3.63-1.77-5.83,0-1.18.14-2.37.41-3.59.27-1.22.61-2.33,1-3.35l7.88-20.12c.24-.63.35-1.18.35-1.65,0-.78-.2-1.47-.59-2.06-.39-.59-.67-1-.82-1.24l6.47-.24c1.18-.08,2.02.06,2.53.41.51.35.76.76.76,1.24s-.28,1.33-.82,2.59l-9.77,22.95c-.86,1.96-1.33,3.1-1.41,3.41-.24,1.18-.39,1.92-.47,2.24-.08.31-.12.51-.12.59v.94c0,1.02.25,1.88.76,2.59.51.71,1.39,1.06,2.65,1.06.78,0,1.69-.24,2.71-.71,1.02-.47,1.76-.94,2.24-1.41,1.96-2.04,3.9-4.73,5.82-8.06,1.92-3.33,3.71-6.65,5.35-9.94.31-.78.71-1.18,1.18-1.18.39,0,.59.28.59.82,0,.31-.12.79-.35,1.41-.78,1.65-1.77,3.69-2.94,6.12-1.18,2.43-2.57,4.85-4.18,7.24-1.61,2.39-3.35,4.37-5.24,5.94-1.88,1.57-3.92,2.35-6.12,2.35ZM565.5,177.98c-1.18,0-2.14-.41-2.88-1.24-.75-.82-1.12-1.82-1.12-3,0-1.49.59-2.78,1.77-3.88,1.18-1.1,2.47-1.65,3.88-1.65,1.25,0,2.28.39,3.06,1.18.78.78,1.18,1.73,1.18,2.82,0,1.49-.59,2.82-1.76,4s-2.55,1.77-4.12,1.77Z"/>
    <path class="cls-2" d="M561.97,226.34c2.9-5.57,5.65-11.16,8.24-16.77,2.59-5.61,5.22-10.92,7.89-15.95,1.57-2.82,2.88-4.8,3.94-5.94,1.06-1.14,2.49-1.71,4.29-1.71.63,0,1.29.1,2,.29.71.2,1.41.29,2.12.29.47,0,.82-.04,1.06-.12-1.1.63-2.51,2.18-4.24,4.65-1.73,2.47-3.49,5.32-5.3,8.53-1.81,3.22-3.41,6.24-4.82,9.06,1.49-1.8,3.04-3.61,4.65-5.41,1.61-1.8,3.39-3.53,5.35-5.18,1.72-1.49,3.55-3.12,5.47-4.88,1.92-1.76,3.82-3.27,5.71-4.53,1.88-1.25,3.53-1.88,4.94-1.88.55,0,.9.04,1.06.12,1.49.63,2.24,1.65,2.24,3.06,0,.47-.2,1.18-.59,2.12-1.02,2.67-2.34,5.39-3.94,8.18-1.61,2.79-3.12,5.59-4.53,8.41,1.18-1.41,2.65-3.14,4.41-5.18,1.76-2.04,3.55-3.84,5.35-5.41,1.72-1.57,3.92-3.22,6.59-4.94,2.67-1.73,5.3-3.22,7.88-4.47,2.59-1.25,4.67-1.88,6.24-1.88.55,0,.94.04,1.18.12-1.73,3.06-3.24,5.83-4.53,8.3s-2.61,5.1-3.94,7.88c-1.34,2.79-2.53,5.45-3.59,8-1.06,2.55-1.75,4.69-2.06,6.41-.24,1.02-.35,1.96-.35,2.82,0,1.26.24,2.08.71,2.47.47.39.98.59,1.53.59,1.57,0,3.18-.82,4.82-2.47,1.65-1.65,3.24-3.63,4.77-5.94,1.53-2.31,2.88-4.59,4.06-6.83s2.04-3.94,2.59-5.12c.47-.86.94-1.29,1.41-1.29s.71.31.71.94c0,.39-.12.82-.35,1.29-.94,1.81-2.06,3.96-3.35,6.47-1.29,2.51-2.77,4.96-4.41,7.35-1.65,2.39-3.47,4.4-5.47,6-2,1.61-4.14,2.41-6.41,2.41-1.65,0-3.32-.55-5-1.65-1.69-1.1-2.53-3.14-2.53-6.12,0-1.65.35-3.65,1.06-6,.55-1.57,1.39-3.37,2.53-5.41,1.14-2.04,2.53-4.39,4.18-7.06.78-1.33,1.18-2.39,1.18-3.18,0-.94-.47-1.41-1.41-1.41-.78,0-1.86.39-3.24,1.18-1.37.78-3.08,2.16-5.12,4.12-1.26,1.18-2.73,2.81-4.41,4.88-1.69,2.08-3.39,4.34-5.12,6.77-1.73,2.43-3.22,4.82-4.47,7.18-1.26,2.35-2.08,4.43-2.47,6.24-1.18,0-2.12-.49-2.82-1.47-.71-.98-1.06-2.14-1.06-3.47v-.71c0-.24.04-.51.12-.82.39-2.43,1.02-4.71,1.88-6.83.86-2.12,1.84-4.31,2.94-6.59.86-1.65,1.72-3.43,2.59-5.35.86-1.92,1.29-3.39,1.29-4.41,0-.63-.24-.94-.71-.94-.55,0-1.45.41-2.71,1.24-1.26.82-2.98,2.26-5.18,4.29-1.96,1.88-4.34,4.59-7.12,8.12-2.79,3.53-5.82,8.55-9.12,15.06-.47.86-1.02,1.39-1.65,1.59-.63.2-1.61.29-2.94.29-.86,0-1.59.02-2.18.06-.59.04-1.19.22-1.82.53Z"/>
    <path class="cls-2" d="M641.28,226.22c-2.9,0-5.51-.94-7.83-2.82-2.32-1.88-3.47-4.75-3.47-8.59,0-3.53.86-7.31,2.59-11.36,1.72-4.04,3.92-7.59,6.59-10.65,2.27-2.67,4.82-4.86,7.65-6.59,2.82-1.72,5.49-2.59,8-2.59,1.72,0,3.22.47,4.47,1.41,1.33,1.02,2,2.47,2,4.35s-.75,4.12-2.24,6.47c-1.49,2.35-3.61,4.55-6.35,6.59-1.18.86-2.67,1.69-4.47,2.47-1.81.79-3.61,1.43-5.41,1.94-1.81.51-3.3.77-4.47.77-.39.94-.76,2.2-1.12,3.77-.35,1.57-.53,3.18-.53,4.82,0,1.96.39,3.73,1.18,5.3.78,1.57,2.24,2.35,4.35,2.35,2.59,0,4.94-.74,7.06-2.24,2.12-1.49,4-3.35,5.65-5.59,1.65-2.24,3.04-4.49,4.18-6.77,1.14-2.27,2.06-4.2,2.77-5.77.47-1.1,1.1-1.65,1.88-1.65.39,0,.59.2.59.59,0,.31-.12.71-.35,1.18-1.1,2.35-2.28,4.85-3.53,7.47-1.26,2.63-2.75,5.1-4.47,7.41-1.73,2.32-3.79,4.18-6.18,5.59-2.39,1.41-5.24,2.12-8.53,2.12ZM639.17,205.51c1.1,0,2.94-.41,5.53-1.24,2.59-.82,4.94-2.14,7.06-3.94,2.04-1.8,3.61-3.78,4.71-5.94,1.1-2.16,1.65-3.98,1.65-5.47,0-1.72-.63-2.59-1.88-2.59-.94,0-2.24.63-3.88,1.88-1.65,1.26-3.69,3.37-6.12,6.35-1.49,1.88-2.9,3.92-4.24,6.12-1.33,2.2-2.28,3.81-2.82,4.83Z"/>
    <path class="cls-2" d="M650.93,226.7c2.82-5.73,5.55-11.39,8.18-17,2.63-5.61,5.31-10.96,8.06-16.06,1.57-2.82,2.88-4.8,3.94-5.94,1.06-1.14,2.49-1.71,4.29-1.71.63,0,1.29.1,2,.29.71.2,1.41.29,2.12.29.47,0,.82-.04,1.06-.12-1.1.63-2.51,2.18-4.24,4.65-1.73,2.47-3.49,5.32-5.3,8.53-1.81,3.22-3.41,6.24-4.82,9.06,1.49-1.8,3.04-3.61,4.65-5.41,1.61-1.8,3.39-3.53,5.35-5.18,1.88-1.65,4.14-3.35,6.77-5.12,2.63-1.77,5.2-3.24,7.71-4.41,2.51-1.18,4.51-1.76,6-1.76.55,0,.94.04,1.18.12-1.73,3.06-3.24,5.83-4.53,8.3-1.3,2.47-2.61,5.1-3.94,7.88-1.34,2.79-2.53,5.45-3.59,8-1.06,2.55-1.75,4.69-2.06,6.41-.24,1.02-.35,1.96-.35,2.82,0,1.26.24,2.08.71,2.47.47.39.98.59,1.53.59,1.49,0,3.06-.8,4.71-2.41,1.65-1.61,3.24-3.59,4.77-5.94,1.53-2.35,2.9-4.65,4.12-6.88,1.22-2.24,2.1-3.94,2.65-5.12.31-.63.55-1,.71-1.12.16-.12.39-.18.71-.18.47,0,.71.31.71.94,0,.39-.12.82-.35,1.29-.94,1.81-2.06,3.96-3.35,6.47-1.29,2.51-2.77,4.96-4.41,7.35-1.65,2.39-3.45,4.4-5.41,6-1.96,1.61-4.08,2.41-6.35,2.41-1.57,0-3.2-.55-4.88-1.65-1.69-1.1-2.53-3.14-2.53-6.12,0-.86.08-1.78.24-2.77.16-.98.43-2.06.82-3.24.63-1.57,1.37-3.25,2.24-5.06.86-1.8,2.27-4.27,4.24-7.41.55-.86.88-1.53,1-2s.18-.86.18-1.18c0-.94-.43-1.41-1.29-1.41-.71,0-1.75.39-3.12,1.18-1.37.78-3.08,2.16-5.12,4.12-1.96,1.88-4.29,4.55-7,8-2.71,3.45-5.83,8.55-9.36,15.3-.55,1.02-1.16,1.57-1.82,1.65-.67.08-1.59.16-2.77.24-.78.08-1.53.14-2.24.18-.71.04-1.29.25-1.76.65Z"/>
    <path class="cls-2" d="M707.42,225.75c-2.2,0-4.16-.76-5.88-2.3-1.73-1.53-2.59-3.94-2.59-7.24,0-2.59.49-5.78,1.47-9.59.98-3.8,2.2-7.77,3.65-11.88,1.45-4.12,2.88-7.86,4.29-11.24h-6.24c-.55,0-.82-.39-.82-1.18,0-.39.1-.74.29-1.06.2-.31.49-.47.88-.47h7.06c1.33-2.98,2.75-5.88,4.24-8.71,1.49-2.82,2.94-5.49,4.35-8,1.8-3.14,3.73-5.49,5.77-7.06,2.04-1.57,3.8-2.35,5.3-2.35,1.18,0,2.16.45,2.94,1.35.78.9,1.18,2.26,1.18,4.06,0,1.1-.24,2.61-.71,4.53-.47,1.92-1.22,3.94-2.24,6.06-.55,1.1-1.31,2.67-2.3,4.71-.98,2.04-1.94,3.84-2.88,5.41h5.65c.55,0,.82.39.82,1.18,0,.31-.08.65-.24,1-.16.35-.39.53-.71.53h-6.94c-1.96,3.37-4.2,6.67-6.71,9.89-2.51,3.22-5.49,6.43-8.94,9.65-.24.71-.53,1.73-.88,3.06-.35,1.34-.67,2.69-.94,4.06-.28,1.37-.61,3-1,4.88-.24,1.02-.35,1.96-.35,2.82,0,1.65.39,2.84,1.18,3.59.78.75,1.69,1.12,2.71,1.12.63,0,1.25-.1,1.88-.29.63-.19,1.33-.57,2.12-1.12,2.75-1.96,5.16-4.63,7.24-8,2.08-3.37,3.9-6.63,5.47-9.77.47-.94.94-1.41,1.41-1.41.31,0,.47.24.47.71,0,.24-.12.67-.35,1.29-1.73,3.61-3.18,6.51-4.35,8.71-1.18,2.2-2.32,4.02-3.41,5.47-1.1,1.45-2.39,2.88-3.88,4.29-1.1,1.1-2.35,1.92-3.77,2.47-1.41.55-2.82.82-4.24.82ZM709.07,199.28c2.27-2.35,4.41-4.86,6.41-7.53,2-2.67,3.86-5.41,5.59-8.24h-5.53c-1.26,2.9-2.43,5.73-3.53,8.47-1.1,2.75-2.08,5.18-2.94,7.3ZM716.72,180.8h6c1.1-2.04,2.14-4.04,3.12-6,.98-1.96,1.86-3.92,2.65-5.88.55-1.25,1.02-2.67,1.41-4.24.39-1.57.59-2.78.59-3.65,0-1.18-.28-1.77-.82-1.77-.39,0-.96.33-1.71,1-.75.67-1.67,1.79-2.77,3.35-1.41,1.96-2.81,4.49-4.18,7.59-1.37,3.1-2.81,6.3-4.29,9.59Z"/>
  </g>
  <g>
    <path class="cls-1" d="M316.17,252.12c-.07.67-.12,1.31-.15,1.94-.03.62-.04,1.1-.04,1.44s0,.65.03.95c.02.3.04.55.05.74h-.61c-.12-1.12-.31-2.01-.57-2.66s-.63-1.11-1.13-1.38-1.2-.41-2.1-.41h-1.82c-.56,0-.99.05-1.28.14-.29.1-.49.29-.59.58-.11.29-.16.74-.16,1.36v13.29c0,.6.05,1.05.16,1.34.11.3.3.5.59.59.29.1.72.14,1.28.14h1.71c1,0,1.8-.16,2.39-.47.59-.32,1.04-.83,1.34-1.56s.54-1.7.7-2.95h.61c-.05.51-.08,1.18-.08,2,0,.35.01.86.04,1.53.03.67.07,1.35.14,2.06-.9-.04-1.91-.06-3.03-.07-1.13,0-2.13-.01-3.01-.01h-1.56c-.63,0-1.31,0-2.04.01-.73,0-1.47.02-2.22.03-.75,0-1.46.02-2.15.04v-.53c.6-.04,1.05-.11,1.34-.21.3-.11.5-.32.59-.63.1-.32.14-.79.14-1.42v-13.08c0-.65-.05-1.13-.14-1.44-.1-.31-.3-.52-.61-.63-.31-.11-.75-.18-1.33-.2v-.53c.69.02,1.4.03,2.15.04.75,0,1.49.02,2.22.03.73,0,1.41.01,2.04.01h1.56c.81,0,1.73,0,2.76-.01,1.03,0,1.95-.03,2.76-.07ZM311.79,261.14v.53h-4.77v-.53h4.77ZM312.56,257.65c-.07,1-.1,1.77-.09,2.29,0,.53.01,1.01.01,1.45s0,.92.03,1.45c.02.53.06,1.29.13,2.29h-.61c-.09-.58-.2-1.14-.34-1.67-.14-.54-.39-.97-.75-1.31-.36-.33-.92-.5-1.67-.5v-.53c.56,0,1.01-.11,1.33-.34.32-.23.58-.53.75-.9.18-.37.3-.75.38-1.15.08-.4.15-.76.22-1.09h.61Z"/>
    <path class="cls-1" d="M327.83,256.81c.7,0,1.28.09,1.73.28.45.18.82.44,1.12.75.32.33.54.76.67,1.29.13.53.2,1.24.2,2.14v7.07c0,.74.14,1.24.44,1.5.29.26.78.4,1.46.4v.55c-.3-.02-.76-.04-1.4-.07-.63-.03-1.26-.04-1.87-.04s-1.19.01-1.78.04c-.59.03-1.03.05-1.33.07v-.55c.6,0,1.02-.13,1.27-.4.25-.26.37-.76.37-1.5v-7.81c0-.51-.04-.97-.13-1.38-.09-.41-.27-.75-.55-1-.28-.25-.7-.38-1.27-.38-.65,0-1.23.18-1.73.55-.5.37-.9.87-1.19,1.52-.29.64-.43,1.36-.43,2.15v6.36c0,.74.13,1.24.38,1.5.25.26.67.4,1.25.4v.55c-.28-.02-.71-.04-1.28-.07-.57-.03-1.16-.04-1.78-.04s-1.22.01-1.87.04c-.65.03-1.13.05-1.45.07v-.55c.69,0,1.17-.13,1.46-.4.29-.26.43-.76.43-1.5v-8.28c0-.79-.13-1.38-.4-1.75-.26-.38-.76-.57-1.5-.57v-.55c.56.05,1.11.08,1.64.08.6,0,1.16-.03,1.67-.09.52-.06,1-.15,1.44-.28v2.87c.46-1.09,1.09-1.85,1.89-2.29.8-.44,1.65-.66,2.54-.66Z"/>
    <path class="cls-1" d="M339.17,252.83v4.38h3.64v.53h-3.64v10.36c0,.72.13,1.23.4,1.53.26.3.64.45,1.13.45.46,0,.87-.18,1.23-.55.36-.37.67-.99.94-1.87l.5.18c-.21.93-.58,1.72-1.12,2.36s-1.32.96-2.36.96c-.6,0-1.1-.07-1.5-.22-.4-.15-.76-.36-1.05-.65-.39-.4-.65-.89-.79-1.45-.14-.56-.21-1.31-.21-2.24v-8.86h-2.43v-.53h2.43v-3.85c.54-.02,1.06-.07,1.53-.15.47-.08.91-.21,1.32-.38Z"/>
    <path class="cls-1" d="M352.35,256.81c.51,0,.94.11,1.31.32s.63.48.82.8c.18.33.28.69.28,1.09,0,.51-.15.95-.46,1.31-.31.36-.72.54-1.23.54-.44,0-.81-.13-1.12-.4-.31-.26-.46-.62-.46-1.08,0-.39.1-.72.3-.99.2-.27.44-.49.7-.65-.18-.14-.39-.2-.63-.18-.47.02-.91.17-1.32.46-.4.29-.75.66-1.03,1.11-.28.45-.5.93-.66,1.44-.16.51-.24.98-.24,1.42v6.07c0,.86.24,1.44.71,1.73.47.29,1.13.44,1.98.44v.55c-.4-.02-.98-.04-1.73-.07-.75-.03-1.53-.04-2.36-.04-.63,0-1.27.01-1.9.04-.63.03-1.12.05-1.45.07v-.55c.69,0,1.17-.13,1.46-.4.29-.26.43-.76.43-1.5v-8.28c0-.79-.13-1.38-.4-1.75-.26-.38-.76-.57-1.5-.57v-.55c.56.05,1.11.08,1.64.08.6,0,1.16-.03,1.67-.09.52-.06,1-.15,1.44-.28v3.03c.21-.51.49-1,.84-1.48.35-.47.77-.87,1.27-1.17.49-.31,1.04-.46,1.63-.46Z"/>
    <path class="cls-1" d="M361.84,256.81c1.55,0,2.76.47,3.64,1.4.88.93,1.32,2.41,1.32,4.43h-9.1l-.05-.5h6.36c.02-.86-.05-1.66-.21-2.39-.16-.73-.4-1.31-.74-1.75-.33-.44-.77-.66-1.32-.66-.76,0-1.41.4-1.96,1.2-.55.8-.89,2.08-1.02,3.84l.08.13c-.02.25-.04.51-.05.8-.02.29-.03.58-.03.86,0,1.21.18,2.23.55,3.06.37.83.85,1.45,1.45,1.86.6.41,1.2.62,1.82.62.47,0,.94-.07,1.38-.22.45-.15.87-.4,1.28-.76.4-.36.76-.86,1.08-1.49l.53.21c-.21.6-.54,1.19-.98,1.77s-1,1.05-1.69,1.41-1.49.54-2.4.54c-1.23,0-2.3-.28-3.22-.83-.91-.55-1.62-1.35-2.11-2.39s-.74-2.27-.74-3.69c0-1.56.25-2.9.76-4.01.51-1.11,1.23-1.96,2.15-2.54.92-.59,1.99-.88,3.2-.88Z"/>
    <path class="cls-1" d="M373.21,256.89v16.17c0,.77.22,1.29.66,1.56.44.26,1.05.4,1.82.4v.55c-.4-.02-.97-.04-1.69-.07-.72-.03-1.49-.04-2.32-.04-.58,0-1.15.01-1.71.04-.56.03-.99.05-1.29.07v-.55c.62,0,1.05-.12,1.31-.36.26-.24.38-.68.38-1.33v-13.26c0-.79-.13-1.38-.4-1.75-.26-.38-.76-.57-1.5-.57v-.55c.56.05,1.11.08,1.64.08.58,0,1.13-.03,1.66-.09.53-.06,1.01-.15,1.45-.28ZM377.4,256.81c.91,0,1.74.25,2.47.75.73.5,1.31,1.24,1.73,2.2.42.97.63,2.17.63,3.61,0,1.05-.12,2.05-.37,2.99-.25.94-.62,1.77-1.12,2.48-.5.71-1.13,1.27-1.88,1.69-.76.41-1.65.62-2.69.62-.77,0-1.45-.17-2.04-.5-.59-.33-1.01-.76-1.25-1.27l.26-.37c.23.44.55.8.96,1.08.41.28.93.42,1.54.42.91,0,1.63-.29,2.15-.88.52-.59.88-1.39,1.09-2.4.21-1.01.32-2.16.32-3.44,0-1.44-.11-2.61-.32-3.49-.21-.89-.53-1.54-.95-1.95-.42-.41-.93-.62-1.53-.62-.79,0-1.51.32-2.15.95s-1.03,1.58-1.17,2.85l-.26-.55c.23-1.32.76-2.34,1.6-3.07.83-.73,1.83-1.09,2.99-1.09Z"/>
    <path class="cls-1" d="M392.59,256.81c.51,0,.94.11,1.31.32.36.21.63.48.82.8.18.33.28.69.28,1.09,0,.51-.15.95-.46,1.31-.31.36-.72.54-1.23.54-.44,0-.81-.13-1.12-.4-.31-.26-.46-.62-.46-1.08,0-.39.1-.72.3-.99.2-.27.43-.49.7-.65-.18-.14-.39-.2-.63-.18-.47.02-.91.17-1.32.46-.4.29-.75.66-1.03,1.11-.28.45-.5.93-.66,1.44-.16.51-.24.98-.24,1.42v6.07c0,.86.24,1.44.71,1.73.47.29,1.13.44,1.98.44v.55c-.4-.02-.98-.04-1.73-.07-.75-.03-1.53-.04-2.36-.04-.63,0-1.27.01-1.9.04s-1.12.05-1.45.07v-.55c.69,0,1.17-.13,1.46-.4.29-.26.43-.76.43-1.5v-8.28c0-.79-.13-1.38-.4-1.75-.26-.38-.76-.57-1.5-.57v-.55c.56.05,1.11.08,1.64.08.6,0,1.16-.03,1.67-.09.52-.06,1-.15,1.44-.28v3.03c.21-.51.49-1,.84-1.48.35-.47.77-.87,1.27-1.17.49-.31,1.04-.46,1.64-.46Z"/>
    <path class="cls-1" d="M400.77,256.89v11.45c0,.74.14,1.24.43,1.5s.78.4,1.46.4v.55c-.3-.02-.76-.04-1.38-.07-.62-.03-1.26-.04-1.91-.04-.62,0-1.25.01-1.9.04-.65.03-1.13.05-1.45.07v-.55c.69,0,1.17-.13,1.46-.4.29-.26.43-.76.43-1.5v-8.28c0-.79-.13-1.38-.4-1.75-.26-.38-.76-.57-1.5-.57v-.55c.56.05,1.11.08,1.64.08.6,0,1.16-.03,1.67-.09.52-.06,1-.15,1.44-.28ZM399.18,250.53c.54,0,1,.17,1.37.51.37.34.55.77.55,1.28s-.19.94-.55,1.28c-.37.34-.83.51-1.37.51s-1-.17-1.37-.51c-.37-.34-.55-.77-.55-1.28s.18-.94.55-1.28c.37-.34.83-.51,1.37-.51Z"/>
    <path class="cls-1" d="M408.84,256.81c.7,0,1.31.11,1.83.33.52.22.89.42,1.12.59.58.46.94.16,1.08-.9h.58c-.04.49-.06,1.09-.08,1.78-.02.7-.03,1.61-.03,2.76h-.58c-.11-.65-.29-1.28-.54-1.9-.26-.62-.62-1.12-1.11-1.53-.48-.4-1.11-.61-1.89-.61-.58,0-1.06.16-1.45.49-.39.33-.58.8-.58,1.44,0,.53.16.98.47,1.37.32.39.73.75,1.23,1.08.5.33,1.04.7,1.62,1.08.65.44,1.24.87,1.75,1.31.52.43.93.91,1.24,1.44.31.53.46,1.14.46,1.85,0,.81-.22,1.49-.65,2.06-.43.56-1,.99-1.7,1.28-.7.29-1.48.44-2.32.44-.42,0-.82-.04-1.19-.12-.37-.08-.71-.18-1.03-.3-.19-.11-.38-.22-.57-.33-.19-.11-.37-.22-.54-.33-.18-.12-.33-.11-.47.05-.14.16-.25.44-.32.84h-.58c.04-.56.06-1.25.08-2.06.02-.81.03-1.88.03-3.22h.58c.12.97.31,1.82.55,2.56s.61,1.31,1.09,1.73c.48.41,1.15.62,1.99.62.33,0,.67-.07,1-.22.33-.15.61-.39.83-.73.22-.33.33-.78.33-1.34,0-.77-.27-1.41-.8-1.91-.54-.5-1.23-1.03-2.07-1.6-.6-.42-1.16-.84-1.7-1.25-.54-.41-.97-.88-1.31-1.4-.33-.52-.5-1.14-.5-1.86,0-.79.19-1.44.57-1.95.38-.51.88-.89,1.52-1.15.63-.25,1.31-.38,2.03-.38Z"/>
    <path class="cls-1" d="M422.39,256.81c1.55,0,2.76.47,3.64,1.4.88.93,1.32,2.41,1.32,4.43h-9.1l-.05-.5h6.35c.02-.86-.05-1.66-.21-2.39-.16-.73-.4-1.31-.74-1.75-.33-.44-.77-.66-1.32-.66-.76,0-1.41.4-1.96,1.2-.55.8-.89,2.08-1.02,3.84l.08.13c-.02.25-.04.51-.05.8-.02.29-.03.58-.03.86,0,1.21.18,2.23.55,3.06.37.83.85,1.45,1.45,1.86.6.41,1.2.62,1.82.62.47,0,.94-.07,1.38-.22.45-.15.87-.4,1.28-.76.4-.36.76-.86,1.08-1.49l.53.21c-.21.6-.54,1.19-.98,1.77s-1,1.05-1.69,1.41-1.49.54-2.4.54c-1.23,0-2.3-.28-3.22-.83-.91-.55-1.62-1.35-2.11-2.39s-.74-2.27-.74-3.69c0-1.56.25-2.9.76-4.01.51-1.11,1.23-1.96,2.15-2.54.92-.59,1.99-.88,3.2-.88Z"/>
    <path class="cls-1" d="M445.07,251.75c1.16,0,2.1.17,2.82.51.72.34,1.38.74,1.98,1.2.23.18.4.26.53.26.33,0,.55-.54.66-1.61h.61c-.04.67-.06,1.47-.08,2.41s-.03,2.19-.03,3.76h-.61c-.12-.84-.29-1.63-.49-2.35-.2-.72-.55-1.34-1.04-1.85-.47-.56-1.09-1-1.86-1.32-.76-.32-1.54-.47-2.33-.47-.91,0-1.72.22-2.43.67-.7.45-1.3,1.09-1.78,1.91-.48.83-.85,1.8-1.11,2.91s-.38,2.34-.38,3.68c0,3.16.49,5.48,1.46,6.95.98,1.47,2.45,2.2,4.42,2.2.56,0,1.05-.08,1.46-.24s.74-.32.99-.47c.3-.21.49-.42.58-.62.09-.2.13-.47.13-.8v-2.56c0-.76-.07-1.31-.2-1.67-.13-.36-.39-.61-.78-.74-.39-.13-.95-.21-1.69-.22v-.53c.33.02.73.03,1.19.04.46,0,.94.02,1.44.03.5,0,.95.01,1.36.01.63,0,1.21,0,1.73-.03.52-.02.94-.03,1.28-.05v.53c-.37.02-.65.08-.83.18-.19.11-.31.32-.37.63-.06.32-.09.8-.09,1.45v5.22h-.53c-.02-.3-.08-.62-.2-.98-.11-.35-.29-.53-.51-.53-.12,0-.25.03-.38.08-.13.05-.36.18-.67.4-.62.42-1.26.76-1.93,1.02s-1.42.38-2.27.38c-1.88,0-3.49-.37-4.83-1.12-1.34-.75-2.35-1.83-3.05-3.24s-1.04-3.1-1.04-5.05.38-3.81,1.15-5.3,1.81-2.65,3.14-3.47c1.33-.82,2.85-1.23,4.57-1.23Z"/>
    <path class="cls-1" d="M460.97,256.81c1.55,0,2.76.47,3.64,1.4.88.93,1.32,2.41,1.32,4.43h-9.1l-.05-.5h6.36c.02-.86-.05-1.66-.21-2.39-.16-.73-.4-1.31-.74-1.75s-.77-.66-1.32-.66c-.76,0-1.41.4-1.97,1.2-.55.8-.89,2.08-1.02,3.84l.08.13c-.02.25-.04.51-.05.8-.02.29-.03.58-.03.86,0,1.21.19,2.23.55,3.06s.85,1.45,1.45,1.86c.6.41,1.2.62,1.82.62.47,0,.94-.07,1.38-.22.45-.15.88-.4,1.28-.76.4-.36.76-.86,1.08-1.49l.53.21c-.21.6-.54,1.19-.98,1.77s-1,1.05-1.69,1.41-1.49.54-2.4.54c-1.23,0-2.3-.28-3.22-.83-.91-.55-1.62-1.35-2.11-2.39s-.74-2.27-.74-3.69c0-1.56.26-2.9.76-4.01s1.23-1.96,2.15-2.54c.92-.59,1.99-.88,3.2-.88ZM463.76,249.32c.23.19.36.45.38.76.03.32-.09.65-.36,1-.28.35-.62.69-1,1-.39.32-.85.7-1.38,1.13-.54.44-1.16,1.03-1.89,1.77l-.29-.24c.55-.9.97-1.66,1.27-2.28.3-.62.55-1.16.76-1.62.21-.46.45-.85.71-1.19.26-.35.57-.55.91-.59.34-.04.64.04.88.25Z"/>
    <path class="cls-1" d="M476.87,256.81c.7,0,1.28.09,1.73.28.45.18.82.44,1.12.75.32.33.54.76.67,1.29.13.53.2,1.24.2,2.14v7.07c0,.74.14,1.24.43,1.5s.78.4,1.46.4v.55c-.3-.02-.76-.04-1.4-.07-.63-.03-1.26-.04-1.87-.04s-1.19.01-1.78.04c-.59.03-1.03.05-1.33.07v-.55c.6,0,1.02-.13,1.27-.4s.37-.76.37-1.5v-7.81c0-.51-.04-.97-.13-1.38-.09-.41-.27-.75-.55-1-.28-.25-.7-.38-1.27-.38-.65,0-1.23.18-1.73.55-.5.37-.9.87-1.19,1.52-.29.64-.43,1.36-.43,2.15v6.36c0,.74.13,1.24.38,1.5.25.26.67.4,1.25.4v.55c-.28-.02-.71-.04-1.28-.07-.57-.03-1.16-.04-1.78-.04s-1.22.01-1.87.04c-.65.03-1.13.05-1.45.07v-.55c.69,0,1.17-.13,1.46-.4s.43-.76.43-1.5v-8.28c0-.79-.13-1.38-.4-1.75-.26-.38-.76-.57-1.5-.57v-.55c.56.05,1.11.08,1.64.08.6,0,1.16-.03,1.67-.09s1-.15,1.44-.28v2.87c.46-1.09,1.09-1.85,1.89-2.29.8-.44,1.65-.66,2.54-.66Z"/>
    <path class="cls-1" d="M490.13,256.81c1.55,0,2.76.47,3.64,1.4.88.93,1.32,2.41,1.32,4.43h-9.1l-.05-.5h6.35c.02-.86-.05-1.66-.21-2.39-.16-.73-.4-1.31-.74-1.75-.33-.44-.77-.66-1.32-.66-.76,0-1.41.4-1.96,1.2-.55.8-.89,2.08-1.02,3.84l.08.13c-.02.25-.04.51-.05.8-.02.29-.03.58-.03.86,0,1.21.18,2.23.55,3.06.37.83.85,1.45,1.45,1.86.6.41,1.2.62,1.82.62.47,0,.94-.07,1.38-.22.45-.15.87-.4,1.28-.76.4-.36.76-.86,1.08-1.49l.53.21c-.21.6-.54,1.19-.98,1.77s-1,1.05-1.69,1.41-1.49.54-2.4.54c-1.23,0-2.3-.28-3.22-.83-.91-.55-1.62-1.35-2.11-2.39s-.74-2.27-.74-3.69c0-1.56.25-2.9.76-4.01.51-1.11,1.23-1.96,2.15-2.54.92-.59,1.99-.88,3.2-.88ZM492.93,249.32c.23.19.36.45.38.76.03.32-.09.65-.36,1-.28.35-.62.69-1,1-.39.32-.85.7-1.38,1.13-.54.44-1.16,1.03-1.88,1.77l-.29-.24c.55-.9.97-1.66,1.27-2.28.3-.62.55-1.16.76-1.62.21-.46.45-.85.71-1.19.26-.35.57-.55.91-.59.34-.04.64.04.88.25Z"/>
    <path class="cls-1" d="M505.35,256.81c.51,0,.95.11,1.31.32.36.21.63.48.82.8.19.33.28.69.28,1.09,0,.51-.15.95-.46,1.31-.31.36-.72.54-1.23.54-.44,0-.81-.13-1.12-.4-.31-.26-.46-.62-.46-1.08,0-.39.1-.72.3-.99.2-.27.44-.49.7-.65-.18-.14-.39-.2-.63-.18-.47.02-.91.17-1.32.46-.4.29-.75.66-1.03,1.11-.28.45-.5.93-.66,1.44-.16.51-.24.98-.24,1.42v6.07c0,.86.24,1.44.71,1.73.47.29,1.13.44,1.98.44v.55c-.4-.02-.98-.04-1.73-.07s-1.53-.04-2.36-.04c-.63,0-1.27.01-1.9.04-.63.03-1.12.05-1.45.07v-.55c.69,0,1.17-.13,1.46-.4s.43-.76.43-1.5v-8.28c0-.79-.13-1.38-.4-1.75-.26-.38-.76-.57-1.5-.57v-.55c.56.05,1.11.08,1.64.08.6,0,1.16-.03,1.67-.09s1-.15,1.44-.28v3.03c.21-.51.49-1,.84-1.48.35-.47.77-.87,1.27-1.17.49-.31,1.04-.46,1.63-.46Z"/>
    <path class="cls-1" d="M512.5,270.97c-.74,0-1.37-.14-1.9-.42-.53-.28-.92-.67-1.19-1.16-.26-.49-.4-1.05-.4-1.69,0-.77.18-1.4.53-1.89s.8-.87,1.36-1.17c.55-.3,1.14-.55,1.77-.75.62-.2,1.21-.4,1.77-.58.55-.18,1.01-.4,1.37-.65.36-.25.54-.57.54-.98v-1.79c0-.63-.1-1.14-.3-1.52s-.47-.65-.82-.8-.75-.24-1.23-.24c-.4,0-.83.06-1.29.17-.46.11-.82.34-1.08.67.39.11.71.31.96.62.25.31.38.69.38,1.15,0,.49-.16.88-.49,1.16-.33.28-.73.42-1.23.42-.55,0-.95-.17-1.21-.51s-.4-.74-.4-1.2.12-.86.36-1.16c.24-.3.55-.58.94-.84.42-.28.96-.52,1.62-.71.66-.19,1.39-.29,2.2-.29.76,0,1.41.08,1.96.25.55.17,1.02.44,1.38.8.44.4.73.91.87,1.52.14.61.21,1.34.21,2.2v7.28c0,.44.06.75.17.94.11.18.3.28.57.28.18,0,.35-.04.51-.13.17-.09.36-.22.59-.4l.26.45c-.37.3-.74.54-1.12.71-.38.18-.86.26-1.44.26s-1.02-.09-1.37-.26c-.35-.18-.61-.43-.78-.76-.17-.33-.25-.75-.25-1.24-.46.74-1,1.3-1.64,1.69-.63.39-1.37.58-2.21.58ZM513.76,269.71c.49,0,.95-.14,1.38-.42s.83-.7,1.2-1.27v-5.25c-.19.28-.47.52-.84.73-.37.2-.76.41-1.19.62s-.82.45-1.2.73c-.38.27-.69.62-.94,1.04-.25.42-.37.96-.37,1.61,0,.69.18,1.23.53,1.62s.83.59,1.42.59Z"/>
    <path class="cls-1" d="M526.68,250.11v18.22c0,.74.15,1.24.44,1.5s.78.4,1.46.4v.55c-.3-.02-.76-.04-1.4-.07-.63-.03-1.27-.04-1.9-.04s-1.27.01-1.91.04c-.64.03-1.12.05-1.44.07v-.55c.69,0,1.17-.13,1.46-.4.29-.26.43-.76.43-1.5v-15.06c0-.79-.13-1.38-.4-1.75-.26-.38-.76-.57-1.5-.57v-.55c.56.05,1.11.08,1.64.08.58,0,1.13-.03,1.66-.09.53-.06,1.01-.15,1.45-.28Z"/>
    <path class="cls-1" d="M536.12,256.81c1.55,0,2.76.47,3.64,1.4.88.93,1.32,2.41,1.32,4.43h-9.1l-.05-.5h6.36c.02-.86-.05-1.66-.21-2.39-.16-.73-.4-1.31-.74-1.75s-.77-.66-1.32-.66c-.76,0-1.41.4-1.97,1.2-.55.8-.89,2.08-1.02,3.84l.08.13c-.02.25-.04.51-.05.8-.02.29-.03.58-.03.86,0,1.21.19,2.23.55,3.06s.85,1.45,1.45,1.86c.6.41,1.2.62,1.82.62.47,0,.94-.07,1.38-.22.45-.15.88-.4,1.28-.76.4-.36.76-.86,1.08-1.49l.53.21c-.21.6-.54,1.19-.98,1.77s-1,1.05-1.69,1.41-1.49.54-2.4.54c-1.23,0-2.3-.28-3.22-.83-.91-.55-1.62-1.35-2.11-2.39s-.74-2.27-.74-3.69c0-1.56.26-2.9.76-4.01s1.23-1.96,2.15-2.54c.92-.59,1.99-.88,3.2-.88Z"/>
    <path class="cls-1" d="M555.74,256.81c.77,0,1.48.17,2.12.5.64.33,1.09.9,1.36,1.69l-.32.29c-.25-.63-.61-1.09-1.08-1.38-.47-.29-1.01-.44-1.61-.44-1,0-1.82.53-2.45,1.6s-.94,2.7-.92,4.92c0,1.46.12,2.65.37,3.57s.61,1.6,1.09,2.04c.48.44,1.07.66,1.75.66s1.31-.29,1.86-.87c.55-.58.88-1.41.99-2.51l.24.55c-.18,1.2-.6,2.11-1.27,2.76s-1.57.96-2.69.96-2.02-.26-2.83-.78-1.45-1.31-1.89-2.37c-.44-1.06-.66-2.4-.66-4.02s.27-2.93.8-4c.54-1.06,1.25-1.86,2.15-2.39.9-.53,1.89-.79,2.98-.79ZM561.68,250.11v17.8c0,.79.14,1.38.41,1.75.27.38.77.57,1.49.57v.55c-.55-.05-1.09-.08-1.64-.08-.6,0-1.16.03-1.67.08s-1,.15-1.44.29v-17.8c0-.79-.14-1.38-.41-1.75-.27-.38-.77-.57-1.49-.57v-.55c.56.05,1.11.08,1.64.08.58,0,1.13-.03,1.66-.09.53-.06,1.01-.15,1.45-.28Z"/>
    <path class="cls-1" d="M577.18,256.89v11.05c0,.79.14,1.38.41,1.75.27.38.77.57,1.49.57v.55c-.55-.05-1.09-.08-1.64-.08-.58,0-1.13.03-1.66.08-.53.05-1.01.15-1.45.29v-2.87c-.44,1.06-1.05,1.81-1.83,2.26-.78.45-1.61.67-2.47.67-.65,0-1.2-.09-1.66-.28-.46-.19-.83-.43-1.13-.73-.32-.35-.54-.8-.66-1.36-.12-.55-.19-1.25-.19-2.1v-6.65c0-.79-.13-1.38-.4-1.75-.26-.38-.76-.57-1.5-.57v-.55c.56.05,1.11.08,1.64.08.58,0,1.13-.03,1.66-.09.53-.06,1.01-.15,1.45-.28v10.55c0,.51.03.98.1,1.4s.24.76.5,1c.26.25.69.37,1.27.37.62,0,1.16-.18,1.65-.55.48-.37.87-.87,1.15-1.5.28-.63.42-1.34.42-2.14v-5.96c0-.79-.13-1.38-.4-1.75-.26-.38-.76-.57-1.5-.57v-.55c.56.05,1.11.08,1.64.08.58,0,1.13-.03,1.66-.09.53-.06,1.01-.15,1.45-.28Z"/>
    <path class="cls-1" d="M587.1,252.12c.4.02.93.04,1.57.05.64.02,1.28.03,1.91.03.84,0,1.65,0,2.41-.03.77-.02,1.31-.03,1.62-.03,1.97,0,3.44.39,4.42,1.16.98.77,1.46,1.77,1.46,2.98,0,.62-.14,1.23-.43,1.83s-.76,1.15-1.41,1.63c-.65.48-1.51.87-2.58,1.15v.05c1.48.16,2.64.47,3.48.95.84.47,1.44,1.04,1.79,1.7.35.66.53,1.35.53,2.07,0,1.04-.26,1.94-.79,2.7s-1.29,1.36-2.28,1.78-2.18.63-3.57.63c-.39,0-.97-.01-1.75-.04s-1.73-.04-2.83-.04c-.67,0-1.32,0-1.96.01-.64,0-1.16.03-1.57.07v-.53c.6-.04,1.05-.11,1.35-.21.3-.11.5-.32.59-.63s.14-.79.14-1.42v-13.08c0-.65-.05-1.13-.14-1.44-.1-.31-.3-.52-.61-.63-.31-.11-.75-.18-1.33-.2v-.53ZM594.06,252.64c-.76,0-1.25.15-1.49.45-.24.3-.36.91-.36,1.82v13.08c0,.62.05,1.08.16,1.4.1.32.29.53.57.63.27.11.67.16,1.2.16,1.58,0,2.73-.4,3.44-1.2.71-.8,1.07-1.94,1.07-3.41,0-1.35-.36-2.4-1.07-3.14-.71-.74-1.89-1.11-3.52-1.11h-2.56v-.45h2.27c.97,0,1.71-.2,2.24-.59.53-.4.89-.92,1.08-1.58.19-.66.29-1.37.29-2.12,0-1.3-.26-2.28-.76-2.94-.51-.66-1.36-.99-2.56-.99Z"/>
    <path class="cls-1" d="M607.35,270.97c-.74,0-1.37-.14-1.9-.42-.53-.28-.92-.67-1.19-1.16-.26-.49-.4-1.05-.4-1.69,0-.77.18-1.4.53-1.89s.8-.87,1.36-1.17c.55-.3,1.14-.55,1.77-.75.62-.2,1.21-.4,1.77-.58.55-.18,1.01-.4,1.37-.65.36-.25.54-.57.54-.98v-1.79c0-.63-.1-1.14-.3-1.52-.2-.38-.47-.65-.82-.8s-.75-.24-1.23-.24c-.4,0-.84.06-1.29.17-.46.11-.82.34-1.08.67.39.11.71.31.96.62.25.31.38.69.38,1.15,0,.49-.16.88-.49,1.16-.33.28-.73.42-1.23.42-.55,0-.95-.17-1.21-.51s-.4-.74-.4-1.2.12-.86.36-1.16c.24-.3.55-.58.94-.84.42-.28.96-.52,1.62-.71.66-.19,1.39-.29,2.2-.29.76,0,1.41.08,1.96.25.55.17,1.02.44,1.38.8.44.4.73.91.87,1.52.14.61.21,1.34.21,2.2v7.28c0,.44.06.75.17.94.11.18.3.28.57.28.18,0,.35-.04.51-.13.17-.09.36-.22.59-.4l.26.45c-.37.3-.74.54-1.12.71-.38.18-.86.26-1.44.26s-1.02-.09-1.37-.26c-.35-.18-.61-.43-.78-.76-.17-.33-.25-.75-.25-1.24-.46.74-1,1.3-1.63,1.69-.63.39-1.37.58-2.22.58ZM609.78,249.48c.39.91.98,1.8,1.78,2.65.8.85,1.71,1.55,2.73,2.1l-.21.37c-.97-.3-1.91-.67-2.82-1.11-.91-.44-1.66-.88-2.24-1.32-.46.44-1.05.88-1.78,1.32-.73.44-1.47.81-2.23,1.11l-.21-.37c1.02-.54,1.93-1.24,2.73-2.1.8-.85,1.39-1.74,1.78-2.65h.47ZM608.62,269.71c.49,0,.95-.14,1.38-.42.43-.28.83-.7,1.2-1.27v-5.25c-.19.28-.47.52-.84.73-.37.2-.76.41-1.19.62s-.82.45-1.2.73-.69.62-.94,1.04c-.25.42-.37.96-.37,1.61,0,.69.18,1.23.53,1.62.35.4.83.59,1.42.59Z"/>
    <path class="cls-1" d="M621.56,252.83v4.38h3.64v.53h-3.64v10.36c0,.72.13,1.23.4,1.53.26.3.64.45,1.13.45.46,0,.87-.18,1.23-.55.36-.37.67-.99.94-1.87l.5.18c-.21.93-.58,1.72-1.12,2.36-.54.64-1.32.96-2.36.96-.6,0-1.1-.07-1.5-.22-.4-.15-.76-.36-1.05-.65-.39-.4-.65-.89-.79-1.45-.14-.56-.21-1.31-.21-2.24v-8.86h-2.43v-.53h2.43v-3.85c.54-.02,1.05-.07,1.53-.15.47-.08.91-.21,1.32-.38Z"/>
    <path class="cls-1" d="M631,256.89v11.45c0,.74.14,1.24.43,1.5s.78.4,1.46.4v.55c-.3-.02-.76-.04-1.38-.07-.62-.03-1.26-.04-1.91-.04-.62,0-1.25.01-1.9.04-.65.03-1.13.05-1.45.07v-.55c.69,0,1.17-.13,1.46-.4s.43-.76.43-1.5v-8.28c0-.79-.13-1.38-.4-1.75-.26-.38-.76-.57-1.5-.57v-.55c.56.05,1.11.08,1.64.08.6,0,1.16-.03,1.67-.09s1-.15,1.44-.28ZM629.42,250.53c.55,0,1,.17,1.37.51.37.34.55.77.55,1.28s-.19.94-.55,1.28c-.37.34-.83.51-1.37.51s-1-.17-1.37-.51c-.37-.34-.55-.77-.55-1.28s.18-.94.55-1.28c.37-.34.83-.51,1.37-.51Z"/>
    <path class="cls-1" d="M643.16,256.81c.67,0,1.23.09,1.69.28.46.18.83.44,1.11.75.32.33.54.78.66,1.33.12.55.18,1.25.18,2.1v7.07c0,.74.14,1.24.42,1.5.28.26.76.4,1.42.4v.55c-.3-.02-.76-.04-1.38-.07-.62-.03-1.24-.04-1.83-.04s-1.18.01-1.75.04c-.57.03-1.01.05-1.31.07v-.55c.58,0,.99-.13,1.23-.4.24-.26.36-.76.36-1.5v-7.81c0-.51-.04-.97-.11-1.38s-.23-.75-.49-1c-.26-.25-.66-.38-1.2-.38-.62,0-1.16.18-1.65.55-.48.37-.87.87-1.16,1.52-.29.64-.43,1.36-.43,2.15v6.36c0,.74.12,1.24.37,1.5s.65.4,1.21.4v.55c-.28-.02-.7-.04-1.27-.07-.56-.03-1.14-.04-1.74-.04s-1.22.01-1.87.04c-.65.03-1.13.05-1.45.07v-.55c.69,0,1.17-.13,1.46-.4s.43-.76.43-1.5v-8.28c0-.79-.13-1.38-.4-1.75-.26-.38-.76-.57-1.5-.57v-.55c.56.05,1.11.08,1.64.08.6,0,1.16-.03,1.67-.09s1-.15,1.44-.28v2.87c.46-1.05,1.07-1.81,1.83-2.27.76-.46,1.57-.69,2.41-.69ZM651.1,256.81c.67,0,1.23.09,1.69.28.46.18.83.44,1.11.75.32.33.54.78.66,1.33.12.55.19,1.25.19,2.1v7.07c0,.74.14,1.24.43,1.5s.78.4,1.46.4v.55c-.3-.02-.76-.04-1.4-.07-.63-.03-1.26-.04-1.87-.04s-1.18.01-1.75.04-1.01.05-1.31.07v-.55c.58,0,.99-.13,1.23-.4.24-.26.36-.76.36-1.5v-7.81c0-.51-.04-.97-.11-1.38s-.24-.75-.5-1c-.26-.25-.68-.38-1.24-.38-.62,0-1.16.19-1.65.57-.48.38-.87.89-1.16,1.53-.29.64-.44,1.36-.44,2.15l-.1-2.19c.47-1.16,1.11-1.95,1.91-2.37.8-.42,1.63-.63,2.49-.63Z"/>
    <path class="cls-1" d="M664.28,256.81c1.55,0,2.76.47,3.64,1.4.88.93,1.32,2.41,1.32,4.43h-9.1l-.05-.5h6.36c.02-.86-.05-1.66-.21-2.39-.16-.73-.4-1.31-.74-1.75-.33-.44-.77-.66-1.32-.66-.76,0-1.41.4-1.96,1.2-.55.8-.89,2.08-1.02,3.84l.08.13c-.02.25-.04.51-.05.8-.02.29-.03.58-.03.86,0,1.21.19,2.23.55,3.06s.85,1.45,1.45,1.86c.6.41,1.2.62,1.82.62.47,0,.94-.07,1.38-.22.45-.15.87-.4,1.28-.76.4-.36.76-.86,1.08-1.49l.53.21c-.21.6-.54,1.19-.98,1.77-.44.58-1,1.05-1.69,1.41s-1.49.54-2.4.54c-1.23,0-2.3-.28-3.22-.83-.91-.55-1.62-1.35-2.11-2.39s-.74-2.27-.74-3.69c0-1.56.25-2.9.76-4.01.51-1.11,1.23-1.96,2.15-2.54.92-.59,1.99-.88,3.2-.88Z"/>
    <path class="cls-1" d="M680.18,256.81c.7,0,1.28.09,1.73.28s.82.44,1.12.75c.32.33.54.76.67,1.29.13.53.2,1.24.2,2.14v7.07c0,.74.14,1.24.43,1.5s.78.4,1.46.4v.55c-.3-.02-.76-.04-1.4-.07-.63-.03-1.26-.04-1.87-.04s-1.19.01-1.78.04-1.03.05-1.33.07v-.55c.6,0,1.02-.13,1.27-.4s.37-.76.37-1.5v-7.81c0-.51-.04-.97-.13-1.38-.09-.41-.27-.75-.55-1-.28-.25-.7-.38-1.27-.38-.65,0-1.23.18-1.73.55s-.9.87-1.19,1.52c-.29.64-.43,1.36-.43,2.15v6.36c0,.74.13,1.24.38,1.5s.67.4,1.25.4v.55c-.28-.02-.71-.04-1.28-.07s-1.16-.04-1.78-.04-1.22.01-1.87.04c-.65.03-1.13.05-1.45.07v-.55c.69,0,1.17-.13,1.46-.4s.43-.76.43-1.5v-8.28c0-.79-.13-1.38-.4-1.75-.26-.38-.76-.57-1.5-.57v-.55c.56.05,1.11.08,1.64.08.6,0,1.16-.03,1.67-.09s1-.15,1.44-.28v2.87c.46-1.09,1.09-1.85,1.88-2.29.8-.44,1.65-.66,2.54-.66Z"/>
    <path class="cls-1" d="M691.52,252.83v4.38h3.64v.53h-3.64v10.36c0,.72.13,1.23.4,1.53.26.3.64.45,1.13.45.46,0,.87-.18,1.23-.55.36-.37.67-.99.94-1.87l.5.18c-.21.93-.58,1.72-1.12,2.36-.54.64-1.32.96-2.36.96-.6,0-1.1-.07-1.5-.22-.4-.15-.76-.36-1.05-.65-.39-.4-.65-.89-.79-1.45-.14-.56-.21-1.31-.21-2.24v-8.86h-2.43v-.53h2.43v-3.85c.54-.02,1.05-.07,1.53-.15.47-.08.91-.21,1.32-.38Z"/>
  </g>
  <g>
    <path class="cls-2" d="M48.88,238.29c2.78-5.33,5.43-11.05,7.31-16.96h-26.93v42.89c8.35-6.87,14.71-16.55,19.62-25.94Z"/>
    <path class="cls-2" d="M61.94,180.92h-13.41v13.93h10.07c1.65-4.5,2.79-9.15,3.34-13.93Z"/>
    <path class="cls-2" d="M76.81,111.35c-1.43-2.22-2.94-4.37-4.46-6.5-6.8,51.46-24.83,132.29-72.35,171.5h42.63c23.89-57.9,33.89-115.8,38.03-157.36-.82-2.73-2.27-5.17-3.85-7.63Z"/>
    <path class="cls-2" d="M82.88,127.82l-1.67-.49-12.32-3.62-1.63-.48s1.11-7.25-2.67-11.23c-3.33-3.51-10.46-5.09-17.16-2.91-6.7,2.19-15.05,7.57-15.05,7.57,0,0-.91-.93-3.52-4.19,1.77-1.97,8.12-9.83,19.65-15.17,11.91-5.51,24.57-4.41,24.57-4.41l20.44,6.01s3.09,6.85,7.48,8.49c4.38,1.64,8.38,1.39,10.93-.83l.36-1.23,11.91,3.5-7.21,24.53-11.91-3.5.36-1.23c-2.24-6.12-8.69-8.01-13.72-7.48-5.75.62-8.84,6.66-8.84,6.66Z"/>
    <g>
      <path class="cls-1" d="M111.49,189.3c-5.4-.1-10.79-.28-16.18-.56,6.04,27.69,14.67,57.65,27.03,87.6h42.63c-25.23-20.82-42.15-53.38-53.48-87.04Z"/>
      <path class="cls-1" d="M98.44,49.36c0-2.59-.77-5.46-2.96-7.06-1.12-.85-2.58-.74-3.9-.78-.82-5.33-1.39-11.72-6.16-15.13.19-5.53.22-11.09-.52-16.59-.45-3.34-.91-6.81-2.58-9.81-1.67,3-2.13,6.47-2.58,9.81-.74,5.5-.71,11.06-.52,16.59-4.77,3.41-5.35,9.79-6.16,15.13-1.32.03-2.78-.07-3.9.78-2.19,1.6-2.97,4.47-2.96,7.06,0,2.63-.14,5.27.08,7.89.8,2.01,10.45,7.7,10.45,7.7l5.59.1,6.52-.1s8.72-5.68,9.52-7.7c.23-2.62.08-5.26.08-7.89Z"/>
      <path class="cls-1" d="M76.49,180.92c-.94,4.58-1.95,9.22-3.03,13.93h43.74v-13.93h-40.71Z"/>
      <path class="cls-1" d="M88.62,180.92c-.94,4.58-1.95,9.22-3.03,13.93h43.74v-13.93h-40.71Z"/>
      <path class="cls-1" d="M66.8,221.34c-1.37,4.92-2.82,9.88-4.36,14.87,5.83-3.61,12.69-5.7,20.05-5.7,14.33,0,26.81,7.9,33.35,19.58-8.01-9.48-19.97-15.5-33.35-15.5-7.73,0-14.99,2.02-21.28,5.55-1.46,4.6-3,9.23-4.63,13.87,5.79-8.06,15.23-13.31,25.91-13.31,17.61,0,31.89,14.28,31.89,31.89v3.76h21.33v-55.01h-68.91Z"/>
      <path class="cls-1" d="M91.18,92.89c-2.3-20.85-2.61-34.54-2.61-34.54h-12.18s-.26,11.55-2.08,29.58l16.87,4.96Z"/>
      <path class="cls-1" d="M108.74,188.2c-5.65-18.33-9.22-35.28-9.22-35.28l2.69-10.14-7.49-16.74-.44.08-5.76,1.03-.52.09-.44.08-1.23,18.3,6.03,8.58,3.97,32.89c2.23-1.17,13.16,3.54,12.41,1.11Z"/>
      <rect class="cls-1" x="127.47" y="221.34" width="30.33" height="21.45"/>
    </g>
    <path class="cls-1" d="M106.62,144.35l-2.3,8.68c.31,1.4-.86-3.57,0,0,17.58,62.98,53.49,108.31,71.94,123.32h17.42s-44.84-23.88-87.06-132Z"/>
  </g>
</svg>